<?xml version="1.0" encoding="utf-8"?>
<svg data-name="Calque 1" id="Calque_1" viewBox="0 0 496.65 491.33" xmlns="http://www.w3.org/2000/svg">
<defs>
<style>
      .cls-1 {
        fill: none;
        stroke: #000;
        stroke-miterlimit: 10;
      }

      .cls-2 {
        fill: #1d1d1b;
      }
    </style>
</defs>

<path d="M209.38,2.38C124.99,14.47,62.38,65.65,22.58,143.87-22.24,228.87,2.31,359.63,72.78,424.87c26.41,28.72,82.95,62.46,116.5,66.3,5.8-.1,5.9-.1,2.3-1-13.47-3.3-11.33-11.81-8.8-27.1,8.1-36.05,16.23-28.61,26.2,7.2,5.24,17.11,4.47,13.18,2.9,21,5.36-.2,12.92,1.19,15.7-3.2,4.35-4.99,15.2-22.42,20.4-21.8,1.2,0,6.8,4.8,14.5,12.5,12.3,12.2,12.6,12.5,17,12.5,0,0,4.4,0,4.4,0-6.66-7.26-14.73-30.13-13.4-36.2,1-3.2,6.5-4.9,13.1-4.2,10.55.16,12.84,7.2,15.3,16.9-.44-3.34-.9-8.24-1.6-11.3-.5-2.5-.3-3.2.9-3.2,2,0,2.5,1.6,3.2,10.7.31,4.17,2.52,22.78-.8,11.3-.2-1.4-.3.5-.3,4.2.32,7.47-1.17,7.94-4.7,11.8,13.3-.39,16.11,1.22,32.4-4.9,65.66-21.7,105.74-61.62,142.8-118.2,47.63-91.52,29.09-224.81-52.4-297.1-12.4-11.6-29.3-24.9-24.2-19.1.9,1.1,1.7,2.8,1.7,3.8,0,1.6-.7,1.7-6.2,1.2-9.2-.9-12-2.2-15.1-6.9-2.8-4.3-4.5-10.4-3.2-11.6.3-.4,3,.6,5.8,2.1,3.9,2.1,4.6,2.3,2.7.7-.91-2.01-43.19-21.85-27.9-13.5,14.69,7.25-2.35,9.96-15.6,15.5-21.5,6.8-25.3,5.6-30.6-9.8-4.34-12.48-1.05-19.83,14.3-15.2,18,4.9,26.2,6.9,26.5,6.6C306.98,5.72,252.4-5.08,209.38,2.38ZM248.08,5.48c6.7,8.9,6.9,15,.7,27.5-5.5,11.1-9.5,14.3-18.1,14.3-10.8,0-15.8-4.2-15.8-13.3.01-4.54-3.12-12.46-3-17.1,1.19-18.93,19.47-13.71,33.8-14.6l2.4,3.2ZM285.48,8.38c11.89,5.62,7.68,10.04,6.4,20.4-2.13,11.28-6.67,21.25-16.8,22.5-6.3,0-6.9-1.1-7.6-14,.13-18.54-9.38-41.74,18-28.9ZM204.28,8.28c1.1,1.1,2.2,29.6,1.2,33.4-1.1,4.5-4.6,3.3-11.4-3.7-8-8.2-15.2-17.6-15.2-19.9,1.28-8.77,20.72-13.88,25.4-9.8ZM262.18,15.48c.4,2.38,3.4,31.77-.5,31.1-4.9,4.9-15.8,4-15.8-1.3.62-4.01,9.86-20.05,10.7-24.5,2.2-7.4,4.6-9.7,5.6-5.3ZM169.48,16.78c1.4,2.1,1.6,4.4,1.2,12.6-.3,5.5-1,10.5-1.6,11.1-7.05,4.06-25.05-17.94-15-21.3,2.4-1.3,11.8-4.8,13-4.9.4,0,1.5,1.1,2.4,2.5ZM299.08,17.48c1.6,1.4,7.8,24,7.8,28.7.21,8.25-13.2,6.99-16.5,4.7-1.7-1.2-1.8-1.8-.6-7.2,4.22-16.34,5.09-31.06,9.3-26.2ZM179.98,23.98c2.4,3.2,6.6,8.4,9.6,11.6,2.9,3.2,5.3,6.7,5.3,7.8,2.3,3.22-18.18,1.75-18.2.6-4.71-1.85-8.43-38.57,3.3-20ZM211.38,33.58c1.4,6.5,2.5,12,2.5,12.3-6.5,1.35-7.44,0-6.5-14.3,1.22-16.99.8-11.16,4,2ZM140.88,28.48c-.1,2.9-3.2,9.9-5.2,11.6-1.1.9-4.1,1.2-9.5,1-13.29-.3-8.37-3.48,1.7-9.5,10.5-5.9,13-6.5,13-3.1ZM155.98,35.48l6.2,6.3c-2.27.29-6.41.7-8-.7-2.6-2.1-6.6-11.8-4.8-11.8.2,0,3.2,2.8,6.6,6.2ZM148.98,36.08c3.2,5.6,2.8,6.7-2.3,6-2.1-.3-2.3-.9-2.6-6.2-.4-7.1.7-7.1,4.9.2ZM141.98,36.88l-.9,3.9-.1-3.6c-.56-4.6,2.89-7.55,1-.3ZM360.58,40.28c.36,1.97-6.06,12.93-7.9,16.3-7.2-.49-24.91-1.52-29.5-1.7-7.7-.2-6.2-2.1,5.7-7.2,20-8.4,31.1-11,31.7-7.4ZM369.88,44.48c4.3,9,4,10.3-2.5,12.6-2.8,1-2.7,1,2.3,1.1,6.69-.87,13.66,6.61,7.8,10.6-4,2.6-30.7,12.5-33.7,12.5-3.8,0-3.7-1.2.5-9.6,4.7-9.3,8.8-13.4,13.5-13.5,7.32.08-2.25-1.19-1.9-3.3,0-1.1,5.3-12.1,7.3-15.4,1.7-2.6,3.9-1,6.7,5ZM132.08,44.38c2.3,1.3,2.3,4.5-.3,13.3-2.8,10-4,12.7-5.3,12.4-1.7-.5-7.6-13.2-8.8-19.1-1.7-8.2-1-9.1,6.4-8.3,3.4.4,7,1.2,8,1.7ZM141.48,45.78c.04,4.86.47,79.06-11.8,34.2-1.1-5.1-1-6.5,1.1-13.4,3.42-9.83,8.06-26.66,10.7-20.8ZM153.28,47.58c9.77,12.53,29.78,54.28.1,59.1-7.3,1.9-10.3,1.3-11.2-2.2.53-3.17-4.14-75.07,11.1-56.9ZM165.28,47.38c6.2,4.2,7.1,6.6,5.6,15.3-1.5,8.1-1.3,8.2-8.5-5.1-5.84-10.26-7.03-17.32,2.9-10.2ZM171.88,46.88c-.14,3.55-4.36-.79-3.4-1.9,1-.9,3.4.4,3.4,1.9ZM199.98,48.88c4.2,2.5,5.5,6,6.4,18.1.8,10,.2,14.3-1.9,14.3-7.83-5.74-16.78-18.24-24.4-24.3-9.5-9.56-5.93-11.53,6.4-10.5,7.7.4,11,.9,13.5,2.4ZM112.18,49.38c7.9,3.52,10.37,36.29,8.2,39-2.9,11.4-3.5,12.9-5.6,12.9-3.4,0-27-17.5-30.8-22.9-3.3-4.7-2.8-9.9,1.5-14.9,7.05-7.18,18.95-17.39,26.7-14.1ZM205.88,49.28c.04,1.27-1.97,1.29-2,0,0-1.32,2.06-1.3,2,0ZM215.18,53.68c.4,2.7.5,5.1.2,5.4-.7.7-7.5-5.9-7.5-7.3,1.1-4.48,7.01-5.11,7.3,1.9ZM236.38,50.98c4.03,5.08-2.85,17.91-5,21.9-1.5,1.8-1.7,1.7-5.9-2.8-5.6-6.1-9.6-17.5-6.9-20.1,1.07-.97,17.68-1.18,17.8,1ZM260.58,53.18c6.02,3.15,4.83,11.33.7,15-5.19,3.72-20.07,9.04-27.7,9.4.72-7.15,8.18-22.2,12.1-24.7,3.9-2.2,11.1-2,14.9.3ZM284.58,53.58c2.01,10.72-12.08,11.48-5.5,11.7,6.15-.22,1.98,5.16.4,14.1-3.13,9.46-3.09,15.8-6.2,20.6-2.31,2.46-3.08-22.08-3.7-29.3,1.67-1.45,5.08-4.31,6.8-5.7-4.4,1.48-8.81,1.73-8.5-4.8-1.2-9.33,11.11-8.52,16.7-6.6ZM295.28,55.88c4.91,1.89-3.3,4.1-6,4.4-1.4,0-1.9-3.1-.7-4.3.8-.9,4.6-.9,6.7-.1ZM186.48,65.68c9.1,10.42,28.44,25.18,5.5,28.3-4.3.5-5.1.2-8.2-2.5-8.15-7.53-15.24-27.05-7.5-35.2.7,0,5.3,4.2,10.2,9.4ZM337.28,58.28c3.3.5,6.3,1.3,6.8,1.8,2.4,2.4-11,23.6-15.8,24.8-10.05,1.86-7.71-5.87-10.5-14-2.4-10.2-2.4-11.5.4-12.6,3-1.2,11.9-1.2,19.1,0ZM212.68,59.88c3.9,2.7,5.2,6.7,5.2,15.8,0,7.6-.2,8.7-2,9.6-5.6,3-8-1.9-8-16,0-11.6.4-12.5,4.8-9.4ZM309.68,60.88c5.18,2.85,8.08,19.45,9.2,23.9,0,.8-1.5,3.1-3.2,5.1-2.48,2.71-31.05,20.74-36.8,14.8-2-1.9-2-2,0-13.9,1.2-6.6,3-13.9,4.1-16.2,3.07-5.94,17.08-20.01,26.7-13.7ZM397.28,59.88c3,1.1,1.6,2.3-5.3,4.5-7,2.3-9.7,2.1-10.7-.6-1.4-3.5.3-4.5,7.5-4.5,3.8,0,7.6.3,8.5.6ZM409.48,64.18c12.1,4.73-7.77,26.42-15.1,23.3-2.5-1.2-8.5-12.2-8.5-15.7-.78-6.15,20.09-11.95,23.6-7.6ZM225.28,74.38c7.23,7.05-4.56,15.18-4.4,1,0-4.9,1-5.1,4.4-1ZM265.28,73.48c2.74,5.35,1.25,9.97,3.1,17.8,2.8,16.1,1.7,22-3.9,20.6-3.4-.8-26.6-26.3-26.6-29.2s.4-3.1,12-7.5c11.3-4.4,13.4-4.6,15.4-1.7ZM381.28,74.28c14.79,11.43,3.31,25.69-13.3,43.1-23.3,23.4-27.1,24.2-33.5,7.1-6.6-17.7-6.3-25.8,1.3-34.4,6.72-7.92,43.76-20.27,45.5-15.8ZM428.58,82.28c5.5,5.8,12.3,16,12.3,18.7,0,1.4-11.7,9.2-13.8,9.3-1.6,0-4-5.5-4.6-10.7-.05-7.43-8.56-34.81,6.1-17.3ZM416.78,79.98c1.4,3.6,4.1,22.3,4.1,29.3,0,6.2-1.5,9.2-6.1,11.5-4.4,2.3-6.5.6-11-9-7-14.9-6.7-18.8,2.3-28.2,5.37-4.54,7.73-9.35,10.7-3.6ZM94.38,89.88c17.9,14.9,21.3,20.1,17.8,27.1-2.2,4.6-5.7,7.2-10.6,8-4.7.7-6.4-.7-10-8.4-8.3-18.4-12.9-36.3-9.1-36.3.3,0,5.7,4.3,11.9,9.6ZM75.28,83.38c4.09.12,18.17,40.45,11.5,42.7-3.5,3.8-15.4,9.1-33.2,14.8-9.5,3-18.7,6.1-20.5,6.9-4.7,2.1-6.7,1.9-8.2-1.1-1.3-2.3-1-3.3,4.2-13.4,15.96-27.3,33.93-58.39,46.2-49.9ZM178.38,89.28c3.2,6.3,3.1,7.8-.2,9.1-4.5,1.7-5.3.7-5.3-7.1,0-8.7,1.8-9.3,5.5-2ZM225.88,86.28c-1.17,2.22-2.92,2.93-3,0-.46-2.5,5.27-3.01,3,0ZM242.88,93.18c13.59,13.89,19.65,22.82.6,24.7-2.82-.71-12.98-10.99-16.6-14.4-.27-16.07,1.01-27.41,16-10.3ZM221.88,90.78c-.18,5.08-.35,6.42-4.4,2.9-3.3-3.2-3.2-6.5.4-7.5,3.5-.9,4-.3,4,4.6ZM132.28,96.48c5,13.1,5.3,15.2,2.5,17.2-6.12,4.22-14.71-.49-13.9-8.4,1.1-7.47,4.29-30.44,11.4-8.8ZM332.88,89.08c0,1.4-5.9,9.2-6.9,9.2-1.6,0-2.3-5.1-.9-6.7,2-2.5,7.8-4.3,7.8-2.5ZM215.78,94.98c1.7,2.1,3.1,4.6,3.1,5.6,0,2.3-6.7,15.7-7.9,15.7-.9,0-1.3-22.8-.5-24.2,1-1.5,2.3-.8,5.3,2.9ZM205.78,97.78c2.28,8.32,2.32,48.05-5.7,27.2-2.46-5.66-12.24-18.8-12-24.2.3-2.7.9-3.2,6.3-5.2,8.1-3,9.7-2.7,11.4,2.2ZM320.38,96.58c1.5,1.2,1.7,2.4,1.3,8.1-.7,7.8-1.8,9.9-15.1,27.8-10.8,14.6-11.7,14.8-20,5.8-5.7-6.1-12.7-18.6-12.7-22.6,0-3.4,3.7-5.7,17.3-10.8,9.44-2.49,24.32-12.18,29.2-8.3ZM223.88,98.28c.05,2.58-1.98,2.61-2,0,.02-2.61,2.05-2.58,2,0ZM184.68,102.98c5.06,8.08,14.64,25.66,10.2,33.8-1.9,2.3-17.8,7.1-19.1,5.8-2.95-2.3-5.97-54.23,8.9-39.6ZM397.28,103.58c5.7,7.5,7.2,16.5,3.7,22.3-2.5,4.1-7.7,8.2-26.1,20.6-19.3,12.9-24.3,15.5-27.5,14-11.26-15.54-2.35-16.3,32.2-51,11.2-10.6,13.5-11.4,17.7-5.9ZM224.48,106.98c2.1,4.5,3.1,16.2,1.5,19.1-1,1.9-10.4,6.2-13.6,6.2-1.1,0-1.5-1.2-1.5-4.3-1.27-2.32,8.7-23.33,10.9-24.7.5,0,1.7,1.7,2.7,3.7ZM168.98,106.98c1.9,2.2,2.7,35.7.9,37.8-2.3,2.7-5.6,1.6-12.6-4.3-7.9-6.7-10.9-11.4-11.9-18.7-1.1-9.1,0-10.2,16.5-15.8,3-1.1,5.8-.7,7.1,1ZM438.28,112.58c.74,8.21-1.69,24.32-2.3,34.3-1.1,12.1-1.9,16.4-3.1,16.4-3.92-7.51-13.75-51.04,4-54.5.4.3,1.1,2,1.4,3.8ZM452.68,114.98c7.77,8.7,29.59,42.93,20.6,57.3-2.4,2.4-20.6,8-26.2,8-13.49-2.23-13.85-9.68-9.4-25,1.1-4.1,2.7-15.4,3.7-25,2.88-22.61,1.16-25.67,11.3-15.3ZM235.08,114.98c5.3,5.3,5.9,6.8,2.6,7.7-4.9,1.3-6.6.7-7.7-2.5-1.2-3.6-1.5-9.9-.4-9.9.4,0,2.9,2.1,5.5,4.7ZM328.68,112.48c2.54,4.34,8.2,23.93,8.4,31.5-16.11,17.25-22.22,32.21-34.8,8.6-1-3.9,1.1-9.3,7.4-18.9,5.23-6.5,13.47-26.37,19-21.2ZM123.38,115.38c.9,1.4.4,1.8-3.3,2.5-2.9.6-3.2.4-3.2-1.9-.18-4.69,4.68-3.28,6.5-.6ZM269.18,114.98c-1.1,3.1-1.5,3.4-2.9,2.2-1.2-1-1.2-1.4.3-2.5,2.5-1.8,3.4-1.7,2.6.3ZM137.88,119.28c0,2.7-.3,5-.7,5-1,0-6.3-5.2-6.3-6.2,0-.7,4.8-3.7,6.3-3.8.4,0,.7,2.2.7,5ZM263.58,118.48c5.77,3.97,2.68,15.3-.4,19.5-1.6.6-12.2-9.4-13.4-12.4-1.2-3.3-.4-4.7,4.4-7.1,5.4-2.7,6.9-2.7,9.4,0ZM271.48,120.98c-1,1-1.9-.5-1-1.8,1.01-2.38,1.7,1.28,1,1.8ZM132.38,124.78l5.7,5.6c-.74,6.14-1.26,11.67-1.9,19.3-.6,8.4-.7,8.9-3.6,10.6-4,2.5-18.3,6.3-20.7,5.5s-6-8.1-6-12.3c2.67-10.16,8.56-48.44,26.5-28.7ZM142.38,122.28c2.2,4.3,2,6.3-.5,5-2.91-.73-2.81-13.07.5-5ZM422.68,121.68c1.5,3.3,4.6,29,3.8,31.1-1.1,2.9-3.5-.2-8.8-11-5.8-12.1-6.1-15.5-1.7-19.6,3.8-3.5,5.2-3.6,6.7-.5ZM246.08,125.98c4.6,3.2,13.4,13.9,14.9,18.2.9,2.5.4,5.2-2.9,16.8-3.85,10.91-7.07,33.04-11.7,38.3-2,0-6.5-19.9-10-44.2-3.6-25.4-3.5-28,1.9-30.4,4-1.7,3.4-1.8,7.8,1.3ZM110.88,125.58c.09,1.41-7.17,22.37-7.6,23.7-.4,1.2-.7,1.2-1.6-.4-1.9-3.4-4.9-20.6-3.5-20.6.1,0,2.7-.9,5.7-2,6.6-2.3,7-2.4,7-.7ZM272.28,126.48c1.06,5.36.79,14.8-1.6,19.3-3.35-3.62-4.87-7.09-2.9-13.1.88-2.06,2.15-12.63,4.5-6.2ZM208.88,131.18c.37,1.19-3,5.72-3,2.8-.17-3.14,2.62-7.1,3-2.8ZM284.08,138.08c12.12,9.97,12.03,30.75-4.4,15.9,0,0-4.8-4.4-4.8-4.4,0-3.87-.39-19.38,1.9-18.3.4,0,3.7,3.1,7.3,6.8ZM144.78,134.38c4.34,4.91,11.37,21.01-.2,22.3-5.6,1.1-6.6-.4-6.1-9.6.9-15.4,1.9-17.4,6.3-12.7ZM224.78,133.88c3.3,2.3,4.9,6.8,6.6,18.6,2.1,13.6,6.8,34.5,9.9,43.5,4.38,12.99,1.32,6.07-4.2-4-9.8-18.6-15.3-28-18.8-32-4.6-5.4-6.4-9.7-6.4-15.2,0-9.7,6.6-15.3,12.9-10.9ZM411.28,136.58c8.2,8.6,15.6,26.2,15.6,37s-3,12.3-26,16.7c-5.8,1.1-16.5,3.4-23.7,5.2-16.9,4.1-17.5,3.9-22.5-6.2-3.21-8.03-7.83-13.94-3.9-21.3,1.8-3.7,4.3-5.8,17.6-14.7,35.5-24,35.9-24.1,42.9-16.7ZM91.58,136.88c8.01,4.12,10.59,26.02,3.6,30.4-3.6,2.8-11.4,2.7-20-.5-6.6-2.75-32.11-6.82-38.4-9.1-14.8-7.72,2.69-8.64,18.6-15.4,25.5-7.75,23.09-10.35,36.2-5.4ZM208.88,139.28c-.09,4.92-.28,5.09-2.6.9-1.3-2.6-1.4-3.3-.2-4,2.3-1.5,2.8-1,2.8,3.1ZM199.88,140.88c-1.07,4.45-6.84,24.29-12.8,25.4-6.41-1.93-17.58-13.32-8.5-19.7,2.3-1.5,18.9-8.2,20.6-8.3.4,0,.7,1.2.7,2.6ZM157.98,144.98l6.1,5.7c-1.81.6-8.05,2.95-8.9,2.3-1.2-1.3-5.2-13.7-4.3-13.7.5,0,3.7,2.6,7.1,5.7ZM205.68,144.68c1.08,1.57,1.68,2.73,2.05,5.42.87,9.27,1.34,33.74.35,33.18-3.46-2.35-16.28-14.13-13.7-21,.7-3.8,7.6-21,8.5-21,.3,0,1.5,1.5,2.8,3.4ZM272.08,151.38c6.8,13.99,4.64,35.71-8,52-2.7,4.1-6.1,9.8-7.6,12.7-2.9,5.7-4,5.8-6.2.6-4.23-11.42,2.96-26.76,6.2-41.4,4.12-16.06,8.71-32.89,15.6-23.9ZM171.88,151.78c0,2.3-.2,2.4-2,1.5-2.1-1.1-2.5-2.2-1.3-3.3,1.5-1.6,3.3-.6,3.3,1.8ZM340.78,155.18c2.8,6.5,2.7,11.2-.1,13.8-4,3.7-12.1,8.3-14.5,8.3-2.9,0-7.3-4.5-7.3-7.5,0-2.8,15.4-19.5,18-19.5,1.2,0,2.5,1.7,3.9,4.9ZM168.28,155.38l2.6,2.1c-.09,5.61-.15,31.36-1.4,32.1-2.03-1.66-21.23-45.71-1.2-34.2ZM285.88,166.78c0,3.4-4.8,12.7-6.3,12.2-1.6-.5-2.5-5.7-2.7-14.7.42-7.56-2.27-12.1,4.5-4.8,3,3.1,4.5,5.6,4.5,7.3ZM300.98,157.58c5.73,4.57,11,10.83,5.4,16.3q-2.5,2.5-5.6.7c-3.6-2.1-8.9-8.1-8.9-10.1,0-1.5,4.2-9.2,5.1-9.2.3,0,2.1,1,4,2.3ZM153.38,158.48c.9,1.3,3.2,7.5,5.1,13.8,2.87,10.18,7.73,17.89,10.9,24.9,3.34,7.17-31.58-7.79-30-7.9-1.6-1.7-2.1-3.6-2.3-10.9-.5-11.7,1.5-16.8,7.9-19.9,5.6-2.7,6.4-2.7,8.4,0ZM37.78,161.68c64.56,16.68,54.21,13.41-4.3,35.6-6.2,2-7.3.1-9.1-16-.8-7.4-1.8-14.7-2.1-16.2-1.17-11.28,5.95-5.71,15.5-3.4ZM105.48,161.98c3.3,8,3.1,8.7-2.5,10.5-3.3,1.1-5.1,1.2-5.1.5,0-2.2,4.4-14.7,5.2-14.7.4,0,1.5,1.7,2.4,3.7ZM215.68,162.48c4.87,7.6,10.88,20.55,16.5,29,25.36,36.39-7.6,14.05-18.6-3-1.8-4.6-3.4-30.2-1.9-30.2.6,0,2.4,1.9,4,4.2ZM20.78,175.58c-.04,9.08,3.78,22.92-1.5,26.3-1.28,1.15-14.54,4.83-12.1.3.4-1.3,1.6-6.9,2.8-12.4,4.3-20.7,5.2-24.1,6.6-26.9,2.2-4.3,2.9-2.2,4.2,12.7ZM184.28,167.88c3.06,6.36-3.73,20.88-9.9,28.7,0,0-.3-16.4-.3-16.4-1.01-20.87,1.56-22.05,10.2-12.3ZM133.88,164.78c2.06,1.74-1.45,14.67-1,17.3.43,5.18-4.44,2.83-7.6,2.3-11.52-1.39-21.82-13.29-3.4-17.5,5.51-.73,8.65-5.8,12-2.1ZM295.58,172.48c5.5,5.4,4.2,9.7-5.6,19.1-5,4.7-6.4,5.7-7.6,4.7-7.21-4.2,3.73-35.49,13.2-23.8ZM318.98,174.48c1.6,1.8,2.9,4.2,2.9,5.3,0,2.7-6.9,6.8-9.6,5.9-3-1.1-5.4-3.6-5.4-5.5,0-2.3,5.7-8.9,7.7-8.9.8,0,2.7,1.5,4.4,3.2ZM345.78,175.08c5.3,5.3,8.8,19.2,6.1,24.3-1.6,2.8-5.7,2.4-8.5-.9-15.2-17.8-15.6-19.1-6.5-23.9,5.4-2.9,5.6-2.9,8.9.5ZM431.58,176.98c-.67,2.37-.67-4.66,0-3,.2.7.2,2.1,0,3ZM110.28,177.88c.9,2,1.5,3.8,1.3,4-.7.7-13.7-3.7-13.7-4.7.65-2.31,11.03-5.38,12.4.7ZM198.68,179.78c6.9,5.3,9.2,9.2,10.3,17.1,1,8.5,1.1,16.4.2,16.4-1.4,0-27.8-10.3-29.1-11.3-1.6-1.3-1.1-3.3,3-14,2.81-7.95,5.12-9.88,10.1-11.7.5,0,2.9,1.6,5.5,3.5ZM473.08,180.28c-.5,5.2-16.7,26-20.2,26-7.93-3.06-15.63-19.74-3.3-24.6,3.31,0,24.45-8.37,23.5-1.4ZM435.48,183.18c-2.82,2.46-4.47.68-3-2.4.58-3.09,3.79,1.19,3,2.4ZM89.08,181.98c6.16,7.65-7.7,33.03-10.8,47.2-15.21,50.93-17.08,32.92-42.6,7.8-8.45-7.86-15.57-32.11-6-36.3,18.36-2.66,52.83-25.43,59.4-18.7ZM106.78,183.38c8.8,3.35,18.6,48.85,21.8,57,.7,4-2.1,8.3-7.5,11.7-3.7,2.5-7,3.5-14.8,4.7-9.02.82-30.85,8.78-34.8,3.9-3.16-.12,17.97-60.76,22.6-68.1,5.83-9.69,5.43-11.34,12.7-9.2ZM485.58,185.98c2.8,5.2,4.9,12.1,6.9,22.8,1.5,4.58,3.23,92.94-7.3,81.7-.3-.9-4.2-9.8-8.6-19.7-16.7-38-20.7-48.4-20.7-54.5,0-5.5,3.5-11.4,13.9-23.3,10.7-12.1,12.5-12.9,15.8-7ZM308.88,185.28c1.1,1.1,2,2.5,2,3-2.66,3.65-13.8,9.16-18.4,12.6-10.3,6.8-10.6,6.9-10.6,3.9,0-1.8,2.5-5,9.5-12,10.3-10.3,13.4-11.6,17.5-7.5ZM333.78,190.98c4.5,4.3,8.1,8.6,8.1,9.5-2.02,8.4-11.43,4.72-18.1-3-3.8-3.8-6.9-7.6-6.9-8.5,0-1.5,5.5-5.7,7.7-5.7.6,0,4.8,3.5,9.2,7.7ZM443.38,197.78c5.45,11.93,6.5,15.16-1.5,24-2.6,2.5-2.9,2.6-3.8.9-1.3-2.6-4.9-18.6-5.7-25.5-.7-5.6.3-9.4,2.9-11.1,1.7-1.1,3.3,1.1,8.1,11.7ZM127.58,188.78c7.76-.69,4.13,30.69,3.8,42-4.77-8.05-7.85-19.82-11.5-29-3.67-10.83-7.49-19.54,7.7-13ZM426.28,189.58c2.3,1.7,2,5.2-1.7,19.2-1.5,5.5-3.8,17.4-5.2,26.4-2.9,18.7-4.3,22.1-9.7,23.5-7.2,1.8-10.7-.7-21.6-15.4-8-10.9-14.7-18.4-18.5-21-4.3-2.9-7.7-7.9-7.7-11.2,2.07-10.06,10.11-10.65,22.4-12.3,10.1-1.2,14.7-2.3,24.3-5.9,12.8-4.9,15-5.3,17.7-3.3ZM276.88,194.78c1.02,8.16-11.03,18.63-15.5,24.5,1.65.3,16.36-17.23,16.9-12.1,1.3,2-1,4.3-9.6,9.6-12.74,7.24-8.88,6.48-8.6,1.4-.2-1.3,6.9-14.3,13.4-24.7,2.1-3.2,3.4-2.7,3.4,1.3ZM319.78,196.58c2.85,2.58,10.02,7.24,7,10.2-4.48,2.68-23.77,4.64-29.4,6.7-12.3,3.4-13.7,3.7-15.1,3.1-7.42-5.02,20.26-19.27,23.3-21.9,5.6-2.9,7.8-2.6,14.2,1.9ZM156.78,198.38c13.1,5.17,15.08,6.3,7.8,22.2-4.38,8.39-7.79,23.71-13.2,26.5-7,3.2-13.9-.1-15.5-7.3-1.8-7.7-.6-41.1,1.6-44.6,1.1-1.9,10.1-.4,19.3,3.2ZM221.08,199.88c3.36,3.74,25.44,17.05,20.8,20.3-.6,1.2-1.3,2.1-1.6,2.1-1.7,0-18.4-5.5-21.5-7.1-8.39-2.58-10.84-27.1,2.3-15.3ZM432.88,214.78c1.2,13.8,1.2,14.2-1,19.3-2.6,5.9-8.3,11.7-8.8,8.9.25-3.08,7.21-71.25,9.8-28.2ZM357.28,205.48c1.9,3,3,8.8,1.8,8.8-1.4,0-7.2-6.8-7.2-8.4,0-3.3,3.4-3.5,5.4-.4ZM348.98,208.18c5.46,6.1,14.74,11.32,16.2,21.3.6,2.4.4,2.8-1.5,2.8-2.9,0-23.8-20.3-23.8-23.1,0-1.8,2.8-3.7,5.7-3.8.7-.1,2.2,1.2,3.4,2.8ZM19.78,208.38c1.8,1.9,4.8,14.5,3.7,15.6-1.25,2.51-14.8-11.16-15.6-13.8,0-.8,6.8-3.8,8.7-3.8.7-.1,2.1.8,3.2,2ZM193.38,210.18c5.5,1.7,11,3.7,12.1,4.5,4.2,3,6.7,12,4.8,17.1-1.08,4.55-16.5,6.85-21.2,4.7-1.5-1-9.2-24.3-9.2-27.9-.51-4.59,7.13.3,13.5,1.6ZM172.68,227.38c-.4,14.6-1,16-8.5,17.8-3.3.9-4.8.9-5.9.1-1.6-1.4.3-6.9,8.7-25.2,6.2-13.6,6.3-13.6,5.7,7.3ZM338.48,213.08c3.64,2.79,33.67,30.19,31.3,34,1.5,7.3.7,9.8-3.6,11.3-5.4,1.8-6.2,1.6-55.3-12.6-9.1-2.6-18.1-5.6-20.2-6.6-7.4-3.7-10.2-12.3-5.5-16.6,3.6-3.3,7.5-4.9,20.7-8.1,17.92-3.96,23.23-6.88,32.6-1.4ZM181.98,228.98c3.97,11.19.83,11.03-6.1,11.4.07-6.63.12-19.97.1-26.6,2.15,4.68,4.24,9.73,6,15.2ZM277.88,216.58c0,2.7-2.8,4.4-9.3,5.3-4.8.7-4.5.2,2.3-4.5,5.4-3.7,7-3.9,7-.8ZM247.28,217.88c.4,1,.1,1.4-.6,1.2-3.25-1.55-.86-4.67.6-1.2ZM15.38,222.38c9.1,7.3,9.6,8.9,9.6,31.8,0,10.3-.3,19.4-.6,20.3-.8,2-4.6,3.5-11,4.3-5,.6-5.1.6-7.2-3.2-3.1-5.5-4.3-13.8-4.3-28.7,1.07-23.59.23-36.81,13.5-24.5ZM225.68,221.18c2.6,1,6.6,2.4,9,3,15.26,3.71-14.14,8.02-17.8,7.4-2.4-.6-3.4-4.7-2-8.9,1.4-4.1,3.7-4.4,10.8-1.5ZM452.68,221.78c3.3,2.8,5.6,7.7,11.8,25,3.95,12.75,20.67,44.09,7.3,47.9-27.55.86-31.09-11.3-32.3-44.4-.52-13.41,3.34-37.53,13.2-28.5ZM247.58,222.78c1.59,3.85-3.38,2.22-3.7-.1,0-1.9,2.9-1.8,3.7.1ZM280.08,226.78c5.52,15.86-24.24,1.81-21.8-.3,1.4-1.3,10.7-3.1,15.5-2.9,5.1.2,5.5.4,6.3,3.2ZM244.58,226.88c-.3.3-1.2.4-1.9.1-1.95-.75,2.98-.85,1.9-.1ZM374.78,232.98c2.5,2.7,9.9,10.6,16.4,17.7,10.7,11.8,14,16.6,12.3,18.3-1.3,1.3-4.9-1.7-20.5-16.8-15.8-15.2-16.1-15.6-16.1-19.7,0-5.7,2-5.5,7.9.5ZM247.88,230.18c0,1.1-4.9,4.3-5.9,3.9-1.99-3.12,3.76-6.66,5.9-3.9ZM237.38,231.18c2.44,4.74-17.67,17.48-21.9,18.8-1.6-.5-1.9-8.7-.5-11.5,1.7-3.1,3.9-4.2,12.4-6.3,8.4-2.1,9.2-2.2,10-1ZM262.38,234.28c1.59,1.94,22.7,19.84,20.5,21.2-2.75,4.85-28.45-28.35-20.5-21.2ZM246.88,235.08c-1.44,3.96-8.6,14.42-9.9,18.7-.62-5.84.98-13.96,4.6-17.1,2.5-2.4,5.3-3.2,5.3-1.6ZM38.08,245.48c4.76,6.18,17.66,17.37,19.2,22.7-1.2,1.2-26.1,5.4-27.4,4.6s-1.8-5.1-2.5-22.3c-.6-15.2-.6-15.3,1.4-14.3,1.1.6,5.3,4.8,9.3,9.3ZM276.68,238.38c4.94,1.3,4.92,5.5,3.4,8.2-.4.3-3.6-2.2-7.2-5.4-11.09-9.45-1.22-4.4,3.8-2.8ZM259.38,243.48c7.77,15.45,12.31,22,20,39.3,6.1,12.1,6.6,13.6,7.2,21.6.7,10.4-.3,12.9-5,12.9-10.53,1.31-15.92-14.58-18.5-27.5.12,5.29,2.03,19.1-1.2,20.7-2.1,2.7-2.4,2.8-12.2,2.8-11.9,0-16.9-1.3-21.4-5.6-10.34-7.65,9.28-51.3,16.2-61.2,6.1-9.5,7.8-7,12.9,18.4,10.31,52.1-1.58-21.13-2.4-24.8-1.4-6.1.7-4.5,4.4,3.4ZM211.88,245.38c1.02,11.01-12.25,20.31-17.9,11.4-2.1-4.2-2.7-14-1-15.1.7-.4,4.5-1.5,8.4-2.5,9.47-2.63,9.44-.43,10.5,6.2ZM266.98,245.38c2.1,3.2,5.9,7.4,8.5,9.5,5.8,4.8,8.4,9.8,8.4,16.4,0,8.5-1,7.6-11.2-11-5.76-10.29-21.85-35.88-5.7-14.9ZM301.88,245.18c29.81,9.7,92.61,21.29,77.1,53.2-16.87,21.09-23.66,13.25-59.3-16.9-22.09-20.72-53.67-44.49-17.8-36.3ZM135.88,250.98c0,.7-.8,1.3-1.8,1.3-2.68.8-.86-6.51-.9-8.5.8,1.73,2.56,5.93,2.7,7.2ZM187.18,246.08c2,1.96,4.84,12.24,6,16.3-2.83,4.77-11.08,11.8-14.8,11.9-2.2,0-2.3-.3-3-11.4-1.83-18.37,2.29-21.52,11.8-16.8ZM432.68,246.98c3.2,4.5,4.2,10,4.2,22.4,0,13.9-.3,14.4-7.6,12.5-10.6-2.9-10.4-2.7-10.4-10.3.1-10.7,2.1-18.5,6.1-23.1,3.78-3.92,4.4-5.94,7.7-1.5ZM170.78,249.78c1.85,2.89,2.07,21.7,2.3,28.2-4.45,4.23-17.13,13.86-18.6,13-.6-.2-2.7-3.4-4.6-7.2-4.5-9.1-4.5-14.2,0-24.7,3.8-9,4.5-9.7,10.8-11.4,6.5-1.8,8.4-1.4,10.1,2.1ZM232.28,254.48c2.19,6.65-12.55,32.47-16.7,28.9-1.7-1.7-1.2-18,.8-24.7,1.5-5.2,5.2-9.1,10.7-11.4,4.7-1.9,5.3-1,5.2,7.2ZM386.98,259.08c12.9,12.8,13.2,16.3.9,10.6-8.7-4-11.6-6.8-13.9-13-4.51-11.57,1.25-9.33,13,2.4ZM150.88,251.78c0,1.2-5,10.4-6,11-1.2.7-4.3-5.9-3.8-8.3-.36-1.65,7.15-4.2,9.8-2.7ZM138.78,260.08c4,7.8,3.8,10-1.9,21.6-2.8,5.8-5.6,10.9-6.2,11.2-1.3.8-.3-21.3,1.1-27.9.8-3.5,3.6-8.7,4.6-8.7.3,0,1.3,1.7,2.4,3.8ZM127.98,258.98c3.58,6.92-.91,35.47-1.3,37.8.27,1.07-30.09-3.03-40.2-4.7-3.89-4.15-17.99-18.45-18.1-21.1,1.25-4.67,22.07-6.75,28.5-8.7,10.58-1.38,24.92-7.88,31.1-3.3ZM416.38,264.88c-.8,6.3-2.1,7.6-4.7,4.4-2.6-3.1-2.3-4.9,1.4-8.7,3.8-3.9,4.3-3.2,3.3,4.3ZM297.08,263.48c19.29,16.45,17.33,16.74,47.1,39.9,7.1,5.6,13.3,11.2,13.9,12.4,1.7,3.7-.5,6.5-5,6.5-7.5-.1-11.5-3.1-33.8-25.5-27.1-27.4-33.9-35.2-32.3-37.1,1.9-2.3,3.4-1.7,10.1,3.8ZM211.38,261.98c1.2,2.9,1.7,30.6.6,32.2-4.28,4.22-7.53-13.98-10.3-17.7-3.6-8.3-3.6-10.4.5-13.6,3.7-3,8.2-3.4,9.2-.9ZM410.88,272.78c3.6,3.7,2.9,4.4-2.9,2.4-5.7-1.84-3.37-10.11,2.9-2.4ZM63.38,272.28c.8,1.3-2.3,11.6-3.8,12.8-2.3,1.8-6.6,2.2-14.3,1.2-29.61-4.01-9.16-11.43,5.6-13.4,8-1.7,11.7-1.9,12.5-.6ZM196.48,272.08c2.1,1.4,10.7,26.3,10.2,29.7-3.84,5.52-6.3,5.73-16.4,4-15.89-1.61-15.5-8.43-15.4-23.4,6.6-4.24,14.19-13.75,21.6-10.3ZM390.58,272.58c2.4.7,4.8,1.8,5.4,2.4,2.3,2.3-4.9,11.3-9.2,11.3-3.3,0-6.8-8.5-5.4-13,.7-2.3,3.2-2.5,9.2-.7ZM297.38,279.48c7,7.3,23.5,27,28.8,34.4,5.8,8.1,4.5,11.4-4.5,11.4-25.92,2.55-47.48-72.32-24.3-45.8ZM145.78,280.48c3.43,7.62,2.57,17.39-5.7,18.8-2.6,0-6.2-2.5-6.2-4.4,0-1.6,8.4-20.6,9.1-20.6.4,0,1.7,2.8,2.8,6.2ZM74.78,282.28c9.1,8.9,8.4,10-4.9,8-9.4-1.5-9.1-1.2-7.4-6.7,2.28-8.73,2.58-10.24,12.3-1.3ZM27.98,278.48c-.1.5-.1,1.7-.1,2.8,1.22,3.85-7.44.53-10.5-.3,2.24-1.09,10.98-5.17,10.6-2.5ZM225.88,285.48c-1.43,6.63-8.16,26.95-10.4,18.5-3.62-7.05,6.86-25.09,11.1-26.3.3.3,0,3.8-.7,7.8ZM406.48,281.18c4,6.2,4.3,13.8.9,24.2-4.1,12.2-9.2,16-14.3,10.6-4.4-4.7-6.7-20.9-3.7-26.6,1.7-3.4,11.2-12.1,13.1-12.1.8,0,2.5,1.8,4,3.9ZM413.68,280.98c.79,3.95-8.21-2.56-2.8-1.5,1.3.1,2.5.9,2.8,1.5ZM423.28,285.98c.52,1.75,21.99,21.21,14.7,20.3-1.7,0-20.1-17.6-20.9-20.1-.45-5.36,3.09-4.52,6.2-.2ZM19.58,286.28c10.42,6.1,6.56,8.96,8.9,25.5,1.47,21.79,4.07,31.55,1.9,51-1.99-2.59-42.9-95.9-10.8-76.5ZM172.88,291.18c0,9.1-1.3,10.6-8.6,9.7-13.1-1.5-13.8-4.8-2.4-10.8,4.1-2.2,7.9-4.3,8.5-4.9,2-1.9,2.5-.7,2.5,6ZM433.88,287.28c5.14,1.62,8.98,11.62,6.1,14-1.08-.49-12.3-10.44-11.6-15,.8-1.3,1-1.3,5.5,1ZM51.68,291.28c5.8,3.6,5.9,4.8.3,22-3.79,8.28-16.83,66.85-18.5,34.6-1.6-19.2-3.3-53.1-2.9-54.3,1.7-4.4,15.2-5.9,21.1-2.3ZM426.48,298.58c2.48,4.46,9.71,9.62,9.5,13.6-1.2,1.9-13.9,3.6-18.6,2.5-3.7-.9-4.1-1.3-4.9-5.5-1.41-7.53.48-14.51,4.4-20,3.51,2.5,6.26,4.98,9.6,9.4ZM459.28,295.38c15.7,5.3,18.6,6.7,18.6,8.9s-1.2,2.6-10.5,4c-12.2,1.7-16.1,1.4-19.6-1.8-3.94-1.92-5.51-15.17-1.7-15.2.6,0,6.6,1.8,13.2,4.1ZM81.48,295.18c4.7,2.1,16.8,13.2,20.7,18.8,5.7,8.3,7.4,6.4-27.2,29.3-36.1,23.8-35.8,23.7-36.7,22.7-.4-.3.8-4.6,2.5-9.4,2.97-6.34,17.72-62.56,22-62,2.5-1.9,14-1.5,18.7.6ZM109.68,297.98c13.7,3.1,14.8,4,12.6,9.1-2.1,5.3-4.5,7.3-9.2,7.9-4.1.6-4.3.5-13.3-8.3-5-4.9-9.5-9.7-10-10.6-2.4-3.89,14.7,1.12,19.9,1.9ZM152.08,298.78c1.21,3.79-3.42,2.45-5.1,1.6-1-.7-.8-1.2,1-2.5,3.1-2.1,3.6-2,4.1.9ZM386.58,301.88c.62,4.22,3.11,15.72-.9,17.8-5.45,3.39-20.48,3.95-17.1-5.7,2-3.7,14.8-17.7,15.7-17.4.6.2,1.6,2.6,2.3,5.3ZM296.78,307.98c2.8,5.3,4.9,10.2,4.7,11-.4,1-1.8,1.3-4.2,1.1-5.6-.5-7.6-3.9-8.2-13.8-.6-11,1-10.6,7.7,1.7ZM137.28,300.58l2.8,1.2c-2.06,1.4-9.59,6.33-10.6,6.5-1,0-.7-5,.4-7.1,1.2-2.2,3.3-2.3,7.4-.6ZM170.08,305.78c3.2,1.3,3.8,5.9,3.1,24.6-.8,24.2-1.6,24-10.9-3.6-4-11.6-6.9-21.3-6.5-21.7,1.5-1.6,9.7-1.3,14.3.7ZM152.98,308.28c2.88,9.59,9.23,26.79,11.7,36.7.4,3.8.2,4.2-2.6,5.7-9.24,6.03-25.37-5.68-34.4-15.9.89-11.27-.81-24.28,10.3-27.8,5.68-2.78,12.4-4.76,15,1.3ZM210.58,306.78c1.63,3.57-3.99,2.82-3.1,0,.8-1.9,2.3-1.9,3.1,0ZM485.18,310.98c3.63,3.58-2.69,15.1-2.9,19.6-5.19,15.02-7.88,8.63-18.4-2.5-11.98-13.52-15.69-15.65,2.5-18.5,15.2-2.7,16.4-2.6,18.8,1.4ZM196.08,310.88c1.7,1.1.7,4.2-3.5,10.9-4.04,5.51-8.49,20.43-11,25.2-1.4,1.9-4.4,1.6-5.2-.5-.7-1.8.4-35.1,1.3-36.6.5-.8,16.8.1,18.4,1ZM445.38,310.28c.72,1.49-1.61,1.08-1.5,0,.01-1.56.92-1.05,1.5,0ZM219.18,311.98c.48,1.1-1.43,6.88-2,8.8-2.41-4.47-4.09-12.04,2-8.8ZM212.08,313.98c1.5,1.3,1.8,3.2,1.8,11,.82,21.35-10.17,20.91-24.7,22.8-4.1,1.3-2.7-3.9,4.3-16.8,9.3-17.3,13.8-21.4,18.6-17ZM250.08,315.88c20.92,2.13,24.27,10.13,10.3,19.2-3,1.5-17.1,4.9-23.5,5.6-9.1,1-14.7-3-17.1-12.5-2.95-17.68,7.91-14.49,30.3-12.3ZM119.98,320.68c-2.33,4.41-1.78,6.39-4.5,2.1-1.6-2.4-1.5-2.5,2.1-4.9,5.16-3.52,4.59-2.79,2.4,2.8ZM126.38,316.98c-1.26,1.33-.58,18.9-4.9,11.2-2.68-1.99,1.55-9.73,2.7-11.7,1.4-1.8,3-1.5,2.2.5ZM438.58,317.48c4.7,5.2,5.5,17.5,1.3,21.3-1.7,1.5-3.1,1.7-9.2,1.1-11-1-14.2-2.2-18.2-6.6-3.8-4.3-4.5-7.8-2.4-12.4,1.2-2.7,2.1-3,14.3-4.5,11.1-1.3,12-1.3,14.2,1.1ZM458.98,325.98c9.22,9.77,8.5,8.93,8.7,16.3-4.76-.14-15.73.87-17.3-2.4-3.93-3.42-9.64-24.14,1.2-17.3.4.8,4.2,4.5,8.3,8.3,7.2,6.7,7.3,6.7,3.2,1.7-2.8-3.94-13.87-13.75-16.2-16.8,0-1.5,4.3,2.1,12.1,10.2ZM340.98,321.28c6,3.1,6.9,5,2.3,5-6.49.89-18.24-13.85-2.3-5ZM402.88,321.18c2.4,4.7.2,14.5-3,12.6-2-1.2-5.2-9.4-4.5-11.5.26-2.05,5.77-4.62,7.5-1.1ZM365.78,321.18c2.08,2.4-.55,3.23,4.5,5.7,7.13,3.55,5.03,5.66-3.9,4.4-6.7-1-10-5.8-4.2-6.1,1.7-.1,1.8-.2.5-.6-4.18-.5.74-6.16,3.1-3.4ZM285.68,323.28c9.13,3.39,2.18,12.28-5.8,12-7.98.98-9.57-7.93-6.8-12.8,1.8-1.8,7.7-1.4,12.6.8ZM391.38,326.78c6.88,15.46-16.7,1.58-16.7-1.5-1.6-1.97,14.47-3.62,14.4-3.3.3.2,1.4,2.3,2.3,4.8ZM306.58,325.88c4.72,6.88-15.35,7.68-14.5,2.5-2.55-6.87,12.1-5.35,14.5-2.5ZM113.28,324.88c4.69,3.18-3.18,12.95-9.5,25-4.9,8.1-8.7,11.4-13.6,11.4-7.36,1.75-43.68,8.4-44.3,5.3,0-1.4,2.7-3.6,9.5-7.3,6.9-3.9,24.6-15.4,38.7-25.3,7.31-5.07,12.55-8.22,17.5-9.6.1-.1.8.2,1.7.5ZM323.58,326.28c9.16.76-13.36,4.3-13.2,2-6.85-5.28,12.04-1.44,13.2-2ZM355.88,327.28c.88,2.69-9.96,1.99-6.9-.1,1.9-1.2,6.9-1.1,6.9.1ZM350.68,330.78c1,1-.9,3.5-2.7,3.5s-4.1-2.6-4.1-4.6c0-.7,6,.2,6.8,1.1ZM121.28,333.18c4.15.79,2.38,21.59.9,24.2-1.1,1.1-17.3,4.1-18.2,3.3s12.5-30.4,13.8-30.4c.4,0,2,1.3,3.5,2.9ZM340.88,333.18c4.83,5.66,4.35,8.34-3.8,16.2-4.2,4.2-7.7,6.9-9,6.9-5.8,0-15.5-19.9-11-22.6,5.6-3.5,19.3-3.7,23.8-.5ZM221.08,335.38c6.02,11.83-5.54,6.97-5.2-.2,0-5.1,2.6-5,5.2.2ZM380.38,336.28c6.3,2.8,14.2,9.1,16.6,13.4,3.55,3.04.06,19.64,2,13.8,1.4-4.6,3.9-3.8,6.2,1.8,1.6,4.1,1.7,2.9.1-2.8-.47-9.39,21.39,13.16,27.8,17.2,11,8.5,12.8,10.7,12.8,16,0,8.9-11.1,21.6-18.9,21.6-8.72-.19-6.74-6.29-11.7-19.3-2.7-9.2-5-16.4-5.2-15.9-.1.4.9,4.8,2.4,9.8,3.7,12.5,4.8,18.4,3.5,19.7-2.59,2.82-14.97-11.41-18.6-16.8v-13.3q.1-13.2-1.2-7.1c-1.3,6.4-3.5,9.9-6.2,9.9-5.42-.02-25.27-30.7-32.3-37.8-5.41-6.45-8.08-6.93-1.7-11,3.08-3.97,20-1.03,24.4.8ZM310.98,336.28c10.43,14.14,17.73,28.65-.4,42.7-6,5.7-10.7,7-12.6,3.5-2.37-4.96-4.09-30.49-3.6-41.4,4.01-4.47,11.02-7.79,16.6-4.8ZM395.78,338.88c1.4,1.6,3.4,7.4,2.8,8-.6.7-11.7-8.5-11.7-9.7,0-.9,8,.6,8.9,1.7ZM287.48,338.88c1.9.9,3.6,2.6,3.9,3.8,1.07,4.79,6.75,75.7-3.8,51.8-6.47-16.79-20.54-63.79-.1-55.6ZM401.88,341.78c0,5.4-1.5,5.9-2.9.8-2.38-6.33,3.54-7.79,2.9-.8ZM427.38,341.38c17.1,3.4,18.8,5.5,20.6,24.6,1.4,15,1,17.3-3.2,17.3-5,0-9.5-2.8-20.3-12.4-10.04-9.99-26.8-18.52-18.1-30.2,2.9-2.9,3-2.9,21,.7ZM134.98,346.48c3.8,4,6.9,7.6,6.9,8,0,.3-2.8.9-6.1,1.3-7.1.8-7.9.2-7.9-6.1-.07-10.23-4.24-14.71,7.1-3.2ZM266.98,341.38c11.17,8.94,6.99,11.69,11.8,29.6,3.9,27.18,12.33,38.01-4.7,54.5-7.5,7.1-13,7.7-16.8,2-5.83-8.56-11.08-32.71-16.9-46.4-9.3-23.9-10.5-29.2-7.7-33.6.5-.7,4.2-2.1,8.3-3.2,8.93-1.99,18.29-6.68,26-2.9ZM213.98,344.58c-2.43,2.2-.31-7.24.7-2.8.2.9-.1,2.2-.7,2.8ZM351.28,345.88c11.88,11.92,45.38,47.01,36.1,69.9-1.78,9.54-3.36,19.4-4.6,28.7-.8,5-1.4,6.5-2.4,6.2-16.74-18.3-44.92-74.99-46.3-86.4-1.52-8.37,8.08-20.62,17.2-18.4ZM227.58,353.78c11.91,29.49,17.54,49.32,25.9,70.1,2.86,8.97,7.07,10.83,1.8,15.3-6.6,5.2-16.7,4.5-23.6-1.7-8.2-7.4-11.1-17.3-12.9-44.7-2.5-37.1-2.4-40.9.8-44,3-3,5.5-1.4,8,5ZM472.58,349.88c1.8,2.5.5,6.9-5.1,17.3-6,10.9-12.8,19.2-14.6,17.5-1.4-1.4-3.5-25.9-2.6-30.7,1.2-6.2,2.8-7.1,12.5-6.4,6.3.5,8.9,1.1,9.8,2.3ZM205.88,350.18c4.78,10.27-10.43,50.21-15.6,48.1-1.4,0-1.5-.1-7-16.5-6.41-19.17-7.14-29.11,8.2-32.1,10.3-1.8,13.2-1.7,14.4.5ZM179.88,351.98c-.04,1.11-3.83,6.9-4.9,8.8-.07-1.93-.3-7.99.6-8.8.9-.9,4.3-.9,4.3,0ZM173.88,355.28c.26,6.7-2.82-.06-2.3-2.3,1-1.7,2.3-.5,2.3,2.3ZM215.78,384.48c-.82,18.86,4.48,41.62-6.9,32.5-14.44-14.96-8.11-20.9-.8-54,2.1-8.1,4.3-11.6,6.1-9.8.6.6,1.2,13.2,1.6,31.3ZM169.28,357.38c1.4,1.7,2.6,3.9,2.6,5,0,4.6-5.7,11.8-8.2,10.2-2.8-1.7-15.1-15.3-14.5-16,1-.9,7.5-2.1,12.9-2.2,4-.1,5,.3,7.2,3ZM146.78,359.68c3.8,2,14.1,14.8,14.1,17.5s-1.4,5.5-10.5,22.1c-7.33,12.11-13.21,35-26.6,25.9-4.08-2.88.41-24.6.2-37.6.7-11.7,1.7-22.3,2.3-23.5,2.5-5.1,14.3-7.6,20.5-4.4ZM120.68,363.98c3.28,1.63-2.31,40.1-1.8,48.5,0,9.8-1.2,13.4-4.6,14.2-4.74.43-27.43-1.67-33.8-7.3-1.7-1.8-1.6-2.1.2-5.8,1.1-2.1,5-11.5,8.7-20.8,8.8-22.1,10.6-25.6,14.6-27.9,6.5-3.8,14.2-4.2,16.7-.9ZM93.28,368.78c-1.03,8.79-8.2,22.75-11.9,32.6-6.5,15.9-7.4,17-12.3,14.5-8.2-4.2-30.4-35.4-28.6-40.1.87-3.16,26.27-6.82,34.4-9.1,7.16-.83,20.13-5.65,18.4,2.1ZM173.48,374.78c.21,3.66,1.01,10.59-3.2,5.2-4.97-3.21,1.96-15.95,3.2-5.2ZM330.78,371.68c8.36,15.9,35.06,64.51,36.9,70.9,4.04,15.9-39.81,11.44-52.4,5.4-4.5-2.3-10.5-8.7-12.8-13.7-2.91-2.08-2.87-36.92,0-39,4.09-7.68,20.34-29.66,28.3-23.6ZM179.68,381.28c3,8.5,2.7,10.1-1.5,6.6-3-2.5-3.3-3.3-3.3-8.3,0-7.3,1.8-6.6,4.8,1.7ZM170.48,385.08c2.6,1.7,3.2,5.3,2.9,19-.3,14.3-.3,14.4-3.1,17.4-5.7,6-10.3,8.2-17.2,8.3-10.5,0-10.9-2.6-3.2-19,5.03-8.73,13.71-29.55,20.6-25.7ZM392.88,393.48c0,3-1.8,2-4-2.2-5.81-10.17,3.97-.44,4,2.2ZM181.98,394.28c2.6,1.5,4.2,5,6.9,15.5s2.4,14-2,20.9l-3,4.7c-10.18-4.5-7.56-9.39-8.8-23.4-.71-14.24-.16-20.73,6.9-17.7ZM407.68,410.08c8.98,11.46,11.58,15.66,5.5,24.5-3.8,4-17.1,12.7-19.5,12.7-6.14-2.72-7.48-3.39-6.5-14.3.7-10.6,4.4-30.6,5.9-32.5,2.7-3.2,6.2-.9,14.6,9.6ZM193.28,405.58c1.6,2.2,1.8,3.1.8,5.2-3.18,9.72-9.24-17.32-.8-5.2ZM295.28,407.88c2.57,1.5,4.38,37.25,4.1,40.2-4.57-1.07-4.21-8.41-5.8-14.8-4-19.7-4.4-23-3-25,1.7-2.4,2.7-2.5,4.7-.4ZM208.08,421.08c6.1,6.1,7.7,8.3,7.2,9.8-5.34,10.88-14.11,4.08-19.2-7.4-2-4.4-2.2-5.8-1.3-7.8,1.9-4.2,4.9-3,13.3,5.4ZM289.28,421.48c3.21,15.53-4.22,27.96-19.5,22.8-8.71-6.59,14.91-22.32,18-25,.5,0,1.1,1,1.5,2.2ZM96.78,427.28c18.3,2.5,19.7,2.9,20.6,7,1.3,6-1.5,19-4.1,19-.9,0-3.6-1.4-6.2-3.2-8.1-5.4-28.2-21.9-29.3-24-1-1.9-.9-2,1.5-1.4,1.4.3,9.3,1.5,17.5,2.6ZM173.68,429.18c1.56,7.29-7.76,1.77-4.8-1.4,1.8-2.2,4.4-1.5,4.8,1.4ZM195.88,431.28c1.1,2.3,1.8,4.5,1.5,5-1.1,1.8-7.5.8-7.5-1.1,0-1.4,2.8-7.9,3.4-7.9.3,0,1.5,1.8,2.6,4ZM130.78,432.68c3.01.48-5.72,13.82-9.4,19.1-.77-6.94-.58-25.5,9.4-19.1ZM221.88,435.38c1.2,2.2.7,4.9-.9,4.9-3.89-.57-3.43-11.4.9-4.9ZM166.08,437.88c7.3,5.1,8.3,8,8,22.4-.1,6.8-.5,13.2-.8,14.2-7.97,8.89-27.88-.35-38-6.7-27.14-18.44,14.46-42.68,30.8-29.9ZM184.28,439.18c1.7,1.9,1.7,2.4-.8,10.8-2.3,6.51-3.38,17.05-5.6,21.3-2,0-2.3-30.1-.4-33.2,1-1.5,5.1-.8,6.8,1.1ZM213.38,441.68c1.5,1.1,2,3.4,2.6,14.2-.07,8.32,3.76,24.4-1,24.8-.7-.7-13.1-35.7-13.1-36.9,1.49-3.55,8.12-4.61,11.5-2.1ZM231.98,447.98c6.96,9.22,11.73,13.47,6.6,21.4-2.8,4.5-15.8,19.9-16.7,19.9-2,0-2.5-16.1-1.2-32.7,1.1-12.5,5.1-15.6,11.3-8.6ZM251.68,446.58c4.1,3.3-2.9,12.3-7.6,9.8-1.8-1-9.2-9.4-9.2-10.5,0-1.7,14.5-1.1,16.8.7ZM269.58,467.28c3.4,9.1,6.2,17.1,6.3,17.8-5.02,2.18-18.5-14.24-20.4-18.9-1.5-3.7-.6-8.2,2.8-13.5,3.2-4.8,4.7-2.9,11.3,14.6ZM329.88,454.78c7.6,1.28,34.25,3.71,40.3,5.4,2.75,7.96-26.86,14.54-38.3,19.5-16.6,6-20.9,6.7-23.8,3.8-1.9-1.9-4.1-12.3-4.4-21.6-.4-8.9,4.2-10.1,26.2-7.1Z" fill="none" stroke="#E6B500" stroke-width="2"/>
<path d="M262.08,287.28c.12,3.52,1.03-.24.5-1.3-.3-.6-.5-.1-.5,1.3Z" fill="none" stroke="#E6B500" stroke-width="2"/>
<path d="M407.98,374.88c.14,2.76,1.29-.92.5-1.3-.3-.4-.6.2-.5,1.3Z" fill="none" stroke="#E6B500" stroke-width="2"/>
<path d="M408.98,378.88c.14,2.76,1.29-.92.5-1.3-.3-.4-.6.2-.5,1.3Z" fill="none" stroke="#E6B500" stroke-width="2"/>
<path d="M299.08,470.28c.12,3.52,1.03-.24.5-1.3-.3-.6-.5-.1-.5,1.3Z" fill="none" stroke="#E6B500" stroke-width="2"/>


<path class="cls-2" d="M209.38,2.38C124.99,14.47,62.38,65.65,22.58,143.87-22.24,228.87,2.31,359.63,72.78,424.87c26.41,28.72,82.95,62.46,116.5,66.3,5.8-.1,5.9-.1,2.3-1-13.47-3.3-11.33-11.81-8.8-27.1,8.1-36.05,16.23-28.61,26.2,7.2,5.24,17.11,4.47,13.18,2.9,21,5.36-.2,12.92,1.19,15.7-3.2,4.35-4.99,15.2-22.42,20.4-21.8,1.2,0,6.8,4.8,14.5,12.5,12.3,12.2,12.6,12.5,17,12.5,0,0,4.4,0,4.4,0-6.66-7.26-14.73-30.13-13.4-36.2,1-3.2,6.5-4.9,13.1-4.2,10.55.16,12.84,7.2,15.3,16.9-.44-3.34-.9-8.24-1.6-11.3-.5-2.5-.3-3.2.9-3.2,2,0,2.5,1.6,3.2,10.7.31,4.17,2.52,22.78-.8,11.3-.2-1.4-.3.5-.3,4.2.32,7.47-1.17,7.94-4.7,11.8,13.3-.39,16.11,1.22,32.4-4.9,65.66-21.7,105.74-61.62,142.8-118.2,47.63-91.52,29.09-224.81-52.4-297.1-12.4-11.6-29.3-24.9-24.2-19.1.9,1.1,1.7,2.8,1.7,3.8,0,1.6-.7,1.7-6.2,1.2-9.2-.9-12-2.2-15.1-6.9-2.8-4.3-4.5-10.4-3.2-11.6.3-.4,3,.6,5.8,2.1,3.9,2.1,4.6,2.3,2.7.7-.91-2.01-43.19-21.85-27.9-13.5,14.69,7.25-2.35,9.96-15.6,15.5-21.5,6.8-25.3,5.6-30.6-9.8-4.34-12.48-1.05-19.83,14.3-15.2,18,4.9,26.2,6.9,26.5,6.6C306.98,5.72,252.4-5.08,209.38,2.38ZM248.08,5.48c6.7,8.9,6.9,15,.7,27.5-5.5,11.1-9.5,14.3-18.1,14.3-10.8,0-15.8-4.2-15.8-13.3.01-4.54-3.12-12.46-3-17.1,1.19-18.93,19.47-13.71,33.8-14.6l2.4,3.2ZM285.48,8.38c11.89,5.62,7.68,10.04,6.4,20.4-2.13,11.28-6.67,21.25-16.8,22.5-6.3,0-6.9-1.1-7.6-14,.13-18.54-9.38-41.74,18-28.9ZM204.28,8.28c1.1,1.1,2.2,29.6,1.2,33.4-1.1,4.5-4.6,3.3-11.4-3.7-8-8.2-15.2-17.6-15.2-19.9,1.28-8.77,20.72-13.88,25.4-9.8ZM262.18,15.48c.4,2.38,3.4,31.77-.5,31.1-4.9,4.9-15.8,4-15.8-1.3.62-4.01,9.86-20.05,10.7-24.5,2.2-7.4,4.6-9.7,5.6-5.3ZM169.48,16.78c1.4,2.1,1.6,4.4,1.2,12.6-.3,5.5-1,10.5-1.6,11.1-7.05,4.06-25.05-17.94-15-21.3,2.4-1.3,11.8-4.8,13-4.9.4,0,1.5,1.1,2.4,2.5ZM299.08,17.48c1.6,1.4,7.8,24,7.8,28.7.21,8.25-13.2,6.99-16.5,4.7-1.7-1.2-1.8-1.8-.6-7.2,4.22-16.34,5.09-31.06,9.3-26.2ZM179.98,23.98c2.4,3.2,6.6,8.4,9.6,11.6,2.9,3.2,5.3,6.7,5.3,7.8,2.3,3.22-18.18,1.75-18.2.6-4.71-1.85-8.43-38.57,3.3-20ZM211.38,33.58c1.4,6.5,2.5,12,2.5,12.3-6.5,1.35-7.44,0-6.5-14.3,1.22-16.99.8-11.16,4,2ZM140.88,28.48c-.1,2.9-3.2,9.9-5.2,11.6-1.1.9-4.1,1.2-9.5,1-13.29-.3-8.37-3.48,1.7-9.5,10.5-5.9,13-6.5,13-3.1ZM155.98,35.48l6.2,6.3c-2.27.29-6.41.7-8-.7-2.6-2.1-6.6-11.8-4.8-11.8.2,0,3.2,2.8,6.6,6.2ZM148.98,36.08c3.2,5.6,2.8,6.7-2.3,6-2.1-.3-2.3-.9-2.6-6.2-.4-7.1.7-7.1,4.9.2ZM141.98,36.88l-.9,3.9-.1-3.6c-.56-4.6,2.89-7.55,1-.3ZM360.58,40.28c.36,1.97-6.06,12.93-7.9,16.3-7.2-.49-24.91-1.52-29.5-1.7-7.7-.2-6.2-2.1,5.7-7.2,20-8.4,31.1-11,31.7-7.4ZM369.88,44.48c4.3,9,4,10.3-2.5,12.6-2.8,1-2.7,1,2.3,1.1,6.69-.87,13.66,6.61,7.8,10.6-4,2.6-30.7,12.5-33.7,12.5-3.8,0-3.7-1.2.5-9.6,4.7-9.3,8.8-13.4,13.5-13.5,7.32.08-2.25-1.19-1.9-3.3,0-1.1,5.3-12.1,7.3-15.4,1.7-2.6,3.9-1,6.7,5ZM132.08,44.38c2.3,1.3,2.3,4.5-.3,13.3-2.8,10-4,12.7-5.3,12.4-1.7-.5-7.6-13.2-8.8-19.1-1.7-8.2-1-9.1,6.4-8.3,3.4.4,7,1.2,8,1.7ZM141.48,45.78c.04,4.86.47,79.06-11.8,34.2-1.1-5.1-1-6.5,1.1-13.4,3.42-9.83,8.06-26.66,10.7-20.8ZM153.28,47.58c9.77,12.53,29.78,54.28.1,59.1-7.3,1.9-10.3,1.3-11.2-2.2.53-3.17-4.14-75.07,11.1-56.9ZM165.28,47.38c6.2,4.2,7.1,6.6,5.6,15.3-1.5,8.1-1.3,8.2-8.5-5.1-5.84-10.26-7.03-17.32,2.9-10.2ZM171.88,46.88c-.14,3.55-4.36-.79-3.4-1.9,1-.9,3.4.4,3.4,1.9ZM199.98,48.88c4.2,2.5,5.5,6,6.4,18.1.8,10,.2,14.3-1.9,14.3-7.83-5.74-16.78-18.24-24.4-24.3-9.5-9.56-5.93-11.53,6.4-10.5,7.7.4,11,.9,13.5,2.4ZM112.18,49.38c7.9,3.52,10.37,36.29,8.2,39-2.9,11.4-3.5,12.9-5.6,12.9-3.4,0-27-17.5-30.8-22.9-3.3-4.7-2.8-9.9,1.5-14.9,7.05-7.18,18.95-17.39,26.7-14.1ZM205.88,49.28c.04,1.27-1.97,1.29-2,0,0-1.32,2.06-1.3,2,0ZM215.18,53.68c.4,2.7.5,5.1.2,5.4-.7.7-7.5-5.9-7.5-7.3,1.1-4.48,7.01-5.11,7.3,1.9ZM236.38,50.98c4.03,5.08-2.85,17.91-5,21.9-1.5,1.8-1.7,1.7-5.9-2.8-5.6-6.1-9.6-17.5-6.9-20.1,1.07-.97,17.68-1.18,17.8,1ZM260.58,53.18c6.02,3.15,4.83,11.33.7,15-5.19,3.72-20.07,9.04-27.7,9.4.72-7.15,8.18-22.2,12.1-24.7,3.9-2.2,11.1-2,14.9.3ZM284.58,53.58c2.01,10.72-12.08,11.48-5.5,11.7,6.15-.22,1.98,5.16.4,14.1-3.13,9.46-3.09,15.8-6.2,20.6-2.31,2.46-3.08-22.08-3.7-29.3,1.67-1.45,5.08-4.31,6.8-5.7-4.4,1.48-8.81,1.73-8.5-4.8-1.2-9.33,11.11-8.52,16.7-6.6ZM295.28,55.88c4.91,1.89-3.3,4.1-6,4.4-1.4,0-1.9-3.1-.7-4.3.8-.9,4.6-.9,6.7-.1ZM186.48,65.68c9.1,10.42,28.44,25.18,5.5,28.3-4.3.5-5.1.2-8.2-2.5-8.15-7.53-15.24-27.05-7.5-35.2.7,0,5.3,4.2,10.2,9.4ZM337.28,58.28c3.3.5,6.3,1.3,6.8,1.8,2.4,2.4-11,23.6-15.8,24.8-10.05,1.86-7.71-5.87-10.5-14-2.4-10.2-2.4-11.5.4-12.6,3-1.2,11.9-1.2,19.1,0ZM212.68,59.88c3.9,2.7,5.2,6.7,5.2,15.8,0,7.6-.2,8.7-2,9.6-5.6,3-8-1.9-8-16,0-11.6.4-12.5,4.8-9.4ZM309.68,60.88c5.18,2.85,8.08,19.45,9.2,23.9,0,.8-1.5,3.1-3.2,5.1-2.48,2.71-31.05,20.74-36.8,14.8-2-1.9-2-2,0-13.9,1.2-6.6,3-13.9,4.1-16.2,3.07-5.94,17.08-20.01,26.7-13.7ZM397.28,59.88c3,1.1,1.6,2.3-5.3,4.5-7,2.3-9.7,2.1-10.7-.6-1.4-3.5.3-4.5,7.5-4.5,3.8,0,7.6.3,8.5.6ZM409.48,64.18c12.1,4.73-7.77,26.42-15.1,23.3-2.5-1.2-8.5-12.2-8.5-15.7-.78-6.15,20.09-11.95,23.6-7.6ZM225.28,74.38c7.23,7.05-4.56,15.18-4.4,1,0-4.9,1-5.1,4.4-1ZM265.28,73.48c2.74,5.35,1.25,9.97,3.1,17.8,2.8,16.1,1.7,22-3.9,20.6-3.4-.8-26.6-26.3-26.6-29.2s.4-3.1,12-7.5c11.3-4.4,13.4-4.6,15.4-1.7ZM381.28,74.28c14.79,11.43,3.31,25.69-13.3,43.1-23.3,23.4-27.1,24.2-33.5,7.1-6.6-17.7-6.3-25.8,1.3-34.4,6.72-7.92,43.76-20.27,45.5-15.8ZM428.58,82.28c5.5,5.8,12.3,16,12.3,18.7,0,1.4-11.7,9.2-13.8,9.3-1.6,0-4-5.5-4.6-10.7-.05-7.43-8.56-34.81,6.1-17.3ZM416.78,79.98c1.4,3.6,4.1,22.3,4.1,29.3,0,6.2-1.5,9.2-6.1,11.5-4.4,2.3-6.5.6-11-9-7-14.9-6.7-18.8,2.3-28.2,5.37-4.54,7.73-9.35,10.7-3.6ZM94.38,89.88c17.9,14.9,21.3,20.1,17.8,27.1-2.2,4.6-5.7,7.2-10.6,8-4.7.7-6.4-.7-10-8.4-8.3-18.4-12.9-36.3-9.1-36.3.3,0,5.7,4.3,11.9,9.6ZM75.28,83.38c4.09.12,18.17,40.45,11.5,42.7-3.5,3.8-15.4,9.1-33.2,14.8-9.5,3-18.7,6.1-20.5,6.9-4.7,2.1-6.7,1.9-8.2-1.1-1.3-2.3-1-3.3,4.2-13.4,15.96-27.3,33.93-58.39,46.2-49.9ZM178.38,89.28c3.2,6.3,3.1,7.8-.2,9.1-4.5,1.7-5.3.7-5.3-7.1,0-8.7,1.8-9.3,5.5-2ZM225.88,86.28c-1.17,2.22-2.92,2.93-3,0-.46-2.5,5.27-3.01,3,0ZM242.88,93.18c13.59,13.89,19.65,22.82.6,24.7-2.82-.71-12.98-10.99-16.6-14.4-.27-16.07,1.01-27.41,16-10.3ZM221.88,90.78c-.18,5.08-.35,6.42-4.4,2.9-3.3-3.2-3.2-6.5.4-7.5,3.5-.9,4-.3,4,4.6ZM132.28,96.48c5,13.1,5.3,15.2,2.5,17.2-6.12,4.22-14.71-.49-13.9-8.4,1.1-7.47,4.29-30.44,11.4-8.8ZM332.88,89.08c0,1.4-5.9,9.2-6.9,9.2-1.6,0-2.3-5.1-.9-6.7,2-2.5,7.8-4.3,7.8-2.5ZM215.78,94.98c1.7,2.1,3.1,4.6,3.1,5.6,0,2.3-6.7,15.7-7.9,15.7-.9,0-1.3-22.8-.5-24.2,1-1.5,2.3-.8,5.3,2.9ZM205.78,97.78c2.28,8.32,2.32,48.05-5.7,27.2-2.46-5.66-12.24-18.8-12-24.2.3-2.7.9-3.2,6.3-5.2,8.1-3,9.7-2.7,11.4,2.2ZM320.38,96.58c1.5,1.2,1.7,2.4,1.3,8.1-.7,7.8-1.8,9.9-15.1,27.8-10.8,14.6-11.7,14.8-20,5.8-5.7-6.1-12.7-18.6-12.7-22.6,0-3.4,3.7-5.7,17.3-10.8,9.44-2.49,24.32-12.18,29.2-8.3ZM223.88,98.28c.05,2.58-1.98,2.61-2,0,.02-2.61,2.05-2.58,2,0ZM184.68,102.98c5.06,8.08,14.64,25.66,10.2,33.8-1.9,2.3-17.8,7.1-19.1,5.8-2.95-2.3-5.97-54.23,8.9-39.6ZM397.28,103.58c5.7,7.5,7.2,16.5,3.7,22.3-2.5,4.1-7.7,8.2-26.1,20.6-19.3,12.9-24.3,15.5-27.5,14-11.26-15.54-2.35-16.3,32.2-51,11.2-10.6,13.5-11.4,17.7-5.9ZM224.48,106.98c2.1,4.5,3.1,16.2,1.5,19.1-1,1.9-10.4,6.2-13.6,6.2-1.1,0-1.5-1.2-1.5-4.3-1.27-2.32,8.7-23.33,10.9-24.7.5,0,1.7,1.7,2.7,3.7ZM168.98,106.98c1.9,2.2,2.7,35.7.9,37.8-2.3,2.7-5.6,1.6-12.6-4.3-7.9-6.7-10.9-11.4-11.9-18.7-1.1-9.1,0-10.2,16.5-15.8,3-1.1,5.8-.7,7.1,1ZM438.28,112.58c.74,8.21-1.69,24.32-2.3,34.3-1.1,12.1-1.9,16.4-3.1,16.4-3.92-7.51-13.75-51.04,4-54.5.4.3,1.1,2,1.4,3.8ZM452.68,114.98c7.77,8.7,29.59,42.93,20.6,57.3-2.4,2.4-20.6,8-26.2,8-13.49-2.23-13.85-9.68-9.4-25,1.1-4.1,2.7-15.4,3.7-25,2.88-22.61,1.16-25.67,11.3-15.3ZM235.08,114.98c5.3,5.3,5.9,6.8,2.6,7.7-4.9,1.3-6.6.7-7.7-2.5-1.2-3.6-1.5-9.9-.4-9.9.4,0,2.9,2.1,5.5,4.7ZM328.68,112.48c2.54,4.34,8.2,23.93,8.4,31.5-16.11,17.25-22.22,32.21-34.8,8.6-1-3.9,1.1-9.3,7.4-18.9,5.23-6.5,13.47-26.37,19-21.2ZM123.38,115.38c.9,1.4.4,1.8-3.3,2.5-2.9.6-3.2.4-3.2-1.9-.18-4.69,4.68-3.28,6.5-.6ZM269.18,114.98c-1.1,3.1-1.5,3.4-2.9,2.2-1.2-1-1.2-1.4.3-2.5,2.5-1.8,3.4-1.7,2.6.3ZM137.88,119.28c0,2.7-.3,5-.7,5-1,0-6.3-5.2-6.3-6.2,0-.7,4.8-3.7,6.3-3.8.4,0,.7,2.2.7,5ZM263.58,118.48c5.77,3.97,2.68,15.3-.4,19.5-1.6.6-12.2-9.4-13.4-12.4-1.2-3.3-.4-4.7,4.4-7.1,5.4-2.7,6.9-2.7,9.4,0ZM271.48,120.98c-1,1-1.9-.5-1-1.8,1.01-2.38,1.7,1.28,1,1.8ZM132.38,124.78l5.7,5.6c-.74,6.14-1.26,11.67-1.9,19.3-.6,8.4-.7,8.9-3.6,10.6-4,2.5-18.3,6.3-20.7,5.5s-6-8.1-6-12.3c2.67-10.16,8.56-48.44,26.5-28.7ZM142.38,122.28c2.2,4.3,2,6.3-.5,5-2.91-.73-2.81-13.07.5-5ZM422.68,121.68c1.5,3.3,4.6,29,3.8,31.1-1.1,2.9-3.5-.2-8.8-11-5.8-12.1-6.1-15.5-1.7-19.6,3.8-3.5,5.2-3.6,6.7-.5ZM246.08,125.98c4.6,3.2,13.4,13.9,14.9,18.2.9,2.5.4,5.2-2.9,16.8-3.85,10.91-7.07,33.04-11.7,38.3-2,0-6.5-19.9-10-44.2-3.6-25.4-3.5-28,1.9-30.4,4-1.7,3.4-1.8,7.8,1.3ZM110.88,125.58c.09,1.41-7.17,22.37-7.6,23.7-.4,1.2-.7,1.2-1.6-.4-1.9-3.4-4.9-20.6-3.5-20.6.1,0,2.7-.9,5.7-2,6.6-2.3,7-2.4,7-.7ZM272.28,126.48c1.06,5.36.79,14.8-1.6,19.3-3.35-3.62-4.87-7.09-2.9-13.1.88-2.06,2.15-12.63,4.5-6.2ZM208.88,131.18c.37,1.19-3,5.72-3,2.8-.17-3.14,2.62-7.1,3-2.8ZM284.08,138.08c12.12,9.97,12.03,30.75-4.4,15.9,0,0-4.8-4.4-4.8-4.4,0-3.87-.39-19.38,1.9-18.3.4,0,3.7,3.1,7.3,6.8ZM144.78,134.38c4.34,4.91,11.37,21.01-.2,22.3-5.6,1.1-6.6-.4-6.1-9.6.9-15.4,1.9-17.4,6.3-12.7ZM224.78,133.88c3.3,2.3,4.9,6.8,6.6,18.6,2.1,13.6,6.8,34.5,9.9,43.5,4.38,12.99,1.32,6.07-4.2-4-9.8-18.6-15.3-28-18.8-32-4.6-5.4-6.4-9.7-6.4-15.2,0-9.7,6.6-15.3,12.9-10.9ZM411.28,136.58c8.2,8.6,15.6,26.2,15.6,37s-3,12.3-26,16.7c-5.8,1.1-16.5,3.4-23.7,5.2-16.9,4.1-17.5,3.9-22.5-6.2-3.21-8.03-7.83-13.94-3.9-21.3,1.8-3.7,4.3-5.8,17.6-14.7,35.5-24,35.9-24.1,42.9-16.7ZM91.58,136.88c8.01,4.12,10.59,26.02,3.6,30.4-3.6,2.8-11.4,2.7-20-.5-6.6-2.75-32.11-6.82-38.4-9.1-14.8-7.72,2.69-8.64,18.6-15.4,25.5-7.75,23.09-10.35,36.2-5.4ZM208.88,139.28c-.09,4.92-.28,5.09-2.6.9-1.3-2.6-1.4-3.3-.2-4,2.3-1.5,2.8-1,2.8,3.1ZM199.88,140.88c-1.07,4.45-6.84,24.29-12.8,25.4-6.41-1.93-17.58-13.32-8.5-19.7,2.3-1.5,18.9-8.2,20.6-8.3.4,0,.7,1.2.7,2.6ZM157.98,144.98l6.1,5.7c-1.81.6-8.05,2.95-8.9,2.3-1.2-1.3-5.2-13.7-4.3-13.7.5,0,3.7,2.6,7.1,5.7ZM205.68,144.68c1.08,1.57,1.68,2.73,2.05,5.42.87,9.27,1.34,33.74.35,33.18-3.46-2.35-16.28-14.13-13.7-21,.7-3.8,7.6-21,8.5-21,.3,0,1.5,1.5,2.8,3.4ZM272.08,151.38c6.8,13.99,4.64,35.71-8,52-2.7,4.1-6.1,9.8-7.6,12.7-2.9,5.7-4,5.8-6.2.6-4.23-11.42,2.96-26.76,6.2-41.4,4.12-16.06,8.71-32.89,15.6-23.9ZM171.88,151.78c0,2.3-.2,2.4-2,1.5-2.1-1.1-2.5-2.2-1.3-3.3,1.5-1.6,3.3-.6,3.3,1.8ZM340.78,155.18c2.8,6.5,2.7,11.2-.1,13.8-4,3.7-12.1,8.3-14.5,8.3-2.9,0-7.3-4.5-7.3-7.5,0-2.8,15.4-19.5,18-19.5,1.2,0,2.5,1.7,3.9,4.9ZM168.28,155.38l2.6,2.1c-.09,5.61-.15,31.36-1.4,32.1-2.03-1.66-21.23-45.71-1.2-34.2ZM285.88,166.78c0,3.4-4.8,12.7-6.3,12.2-1.6-.5-2.5-5.7-2.7-14.7.42-7.56-2.27-12.1,4.5-4.8,3,3.1,4.5,5.6,4.5,7.3ZM300.98,157.58c5.73,4.57,11,10.83,5.4,16.3q-2.5,2.5-5.6.7c-3.6-2.1-8.9-8.1-8.9-10.1,0-1.5,4.2-9.2,5.1-9.2.3,0,2.1,1,4,2.3ZM153.38,158.48c.9,1.3,3.2,7.5,5.1,13.8,2.87,10.18,7.73,17.89,10.9,24.9,3.34,7.17-31.58-7.79-30-7.9-1.6-1.7-2.1-3.6-2.3-10.9-.5-11.7,1.5-16.8,7.9-19.9,5.6-2.7,6.4-2.7,8.4,0ZM37.78,161.68c64.56,16.68,54.21,13.41-4.3,35.6-6.2,2-7.3.1-9.1-16-.8-7.4-1.8-14.7-2.1-16.2-1.17-11.28,5.95-5.71,15.5-3.4ZM105.48,161.98c3.3,8,3.1,8.7-2.5,10.5-3.3,1.1-5.1,1.2-5.1.5,0-2.2,4.4-14.7,5.2-14.7.4,0,1.5,1.7,2.4,3.7ZM215.68,162.48c4.87,7.6,10.88,20.55,16.5,29,25.36,36.39-7.6,14.05-18.6-3-1.8-4.6-3.4-30.2-1.9-30.2.6,0,2.4,1.9,4,4.2ZM20.78,175.58c-.04,9.08,3.78,22.92-1.5,26.3-1.28,1.15-14.54,4.83-12.1.3.4-1.3,1.6-6.9,2.8-12.4,4.3-20.7,5.2-24.1,6.6-26.9,2.2-4.3,2.9-2.2,4.2,12.7ZM184.28,167.88c3.06,6.36-3.73,20.88-9.9,28.7,0,0-.3-16.4-.3-16.4-1.01-20.87,1.56-22.05,10.2-12.3ZM133.88,164.78c2.06,1.74-1.45,14.67-1,17.3.43,5.18-4.44,2.83-7.6,2.3-11.52-1.39-21.82-13.29-3.4-17.5,5.51-.73,8.65-5.8,12-2.1ZM295.58,172.48c5.5,5.4,4.2,9.7-5.6,19.1-5,4.7-6.4,5.7-7.6,4.7-7.21-4.2,3.73-35.49,13.2-23.8ZM318.98,174.48c1.6,1.8,2.9,4.2,2.9,5.3,0,2.7-6.9,6.8-9.6,5.9-3-1.1-5.4-3.6-5.4-5.5,0-2.3,5.7-8.9,7.7-8.9.8,0,2.7,1.5,4.4,3.2ZM345.78,175.08c5.3,5.3,8.8,19.2,6.1,24.3-1.6,2.8-5.7,2.4-8.5-.9-15.2-17.8-15.6-19.1-6.5-23.9,5.4-2.9,5.6-2.9,8.9.5ZM431.58,176.98c-.67,2.37-.67-4.66,0-3,.2.7.2,2.1,0,3ZM110.28,177.88c.9,2,1.5,3.8,1.3,4-.7.7-13.7-3.7-13.7-4.7.65-2.31,11.03-5.38,12.4.7ZM198.68,179.78c6.9,5.3,9.2,9.2,10.3,17.1,1,8.5,1.1,16.4.2,16.4-1.4,0-27.8-10.3-29.1-11.3-1.6-1.3-1.1-3.3,3-14,2.81-7.95,5.12-9.88,10.1-11.7.5,0,2.9,1.6,5.5,3.5ZM473.08,180.28c-.5,5.2-16.7,26-20.2,26-7.93-3.06-15.63-19.74-3.3-24.6,3.31,0,24.45-8.37,23.5-1.4ZM435.48,183.18c-2.82,2.46-4.47.68-3-2.4.58-3.09,3.79,1.19,3,2.4ZM89.08,181.98c6.16,7.65-7.7,33.03-10.8,47.2-15.21,50.93-17.08,32.92-42.6,7.8-8.45-7.86-15.57-32.11-6-36.3,18.36-2.66,52.83-25.43,59.4-18.7ZM106.78,183.38c8.8,3.35,18.6,48.85,21.8,57,.7,4-2.1,8.3-7.5,11.7-3.7,2.5-7,3.5-14.8,4.7-9.02.82-30.85,8.78-34.8,3.9-3.16-.12,17.97-60.76,22.6-68.1,5.83-9.69,5.43-11.34,12.7-9.2ZM485.58,185.98c2.8,5.2,4.9,12.1,6.9,22.8,1.5,4.58,3.23,92.94-7.3,81.7-.3-.9-4.2-9.8-8.6-19.7-16.7-38-20.7-48.4-20.7-54.5,0-5.5,3.5-11.4,13.9-23.3,10.7-12.1,12.5-12.9,15.8-7ZM308.88,185.28c1.1,1.1,2,2.5,2,3-2.66,3.65-13.8,9.16-18.4,12.6-10.3,6.8-10.6,6.9-10.6,3.9,0-1.8,2.5-5,9.5-12,10.3-10.3,13.4-11.6,17.5-7.5ZM333.78,190.98c4.5,4.3,8.1,8.6,8.1,9.5-2.02,8.4-11.43,4.72-18.1-3-3.8-3.8-6.9-7.6-6.9-8.5,0-1.5,5.5-5.7,7.7-5.7.6,0,4.8,3.5,9.2,7.7ZM443.38,197.78c5.45,11.93,6.5,15.16-1.5,24-2.6,2.5-2.9,2.6-3.8.9-1.3-2.6-4.9-18.6-5.7-25.5-.7-5.6.3-9.4,2.9-11.1,1.7-1.1,3.3,1.1,8.1,11.7ZM127.58,188.78c7.76-.69,4.13,30.69,3.8,42-4.77-8.05-7.85-19.82-11.5-29-3.67-10.83-7.49-19.54,7.7-13ZM426.28,189.58c2.3,1.7,2,5.2-1.7,19.2-1.5,5.5-3.8,17.4-5.2,26.4-2.9,18.7-4.3,22.1-9.7,23.5-7.2,1.8-10.7-.7-21.6-15.4-8-10.9-14.7-18.4-18.5-21-4.3-2.9-7.7-7.9-7.7-11.2,2.07-10.06,10.11-10.65,22.4-12.3,10.1-1.2,14.7-2.3,24.3-5.9,12.8-4.9,15-5.3,17.7-3.3ZM276.88,194.78c1.02,8.16-11.03,18.63-15.5,24.5,1.65.3,16.36-17.23,16.9-12.1,1.3,2-1,4.3-9.6,9.6-12.74,7.24-8.88,6.48-8.6,1.4-.2-1.3,6.9-14.3,13.4-24.7,2.1-3.2,3.4-2.7,3.4,1.3ZM319.78,196.58c2.85,2.58,10.02,7.24,7,10.2-4.48,2.68-23.77,4.64-29.4,6.7-12.3,3.4-13.7,3.7-15.1,3.1-7.42-5.02,20.26-19.27,23.3-21.9,5.6-2.9,7.8-2.6,14.2,1.9ZM156.78,198.38c13.1,5.17,15.08,6.3,7.8,22.2-4.38,8.39-7.79,23.71-13.2,26.5-7,3.2-13.9-.1-15.5-7.3-1.8-7.7-.6-41.1,1.6-44.6,1.1-1.9,10.1-.4,19.3,3.2ZM221.08,199.88c3.36,3.74,25.44,17.05,20.8,20.3-.6,1.2-1.3,2.1-1.6,2.1-1.7,0-18.4-5.5-21.5-7.1-8.39-2.58-10.84-27.1,2.3-15.3ZM432.88,214.78c1.2,13.8,1.2,14.2-1,19.3-2.6,5.9-8.3,11.7-8.8,8.9.25-3.08,7.21-71.25,9.8-28.2ZM357.28,205.48c1.9,3,3,8.8,1.8,8.8-1.4,0-7.2-6.8-7.2-8.4,0-3.3,3.4-3.5,5.4-.4ZM348.98,208.18c5.46,6.1,14.74,11.32,16.2,21.3.6,2.4.4,2.8-1.5,2.8-2.9,0-23.8-20.3-23.8-23.1,0-1.8,2.8-3.7,5.7-3.8.7-.1,2.2,1.2,3.4,2.8ZM19.78,208.38c1.8,1.9,4.8,14.5,3.7,15.6-1.25,2.51-14.8-11.16-15.6-13.8,0-.8,6.8-3.8,8.7-3.8.7-.1,2.1.8,3.2,2ZM193.38,210.18c5.5,1.7,11,3.7,12.1,4.5,4.2,3,6.7,12,4.8,17.1-1.08,4.55-16.5,6.85-21.2,4.7-1.5-1-9.2-24.3-9.2-27.9-.51-4.59,7.13.3,13.5,1.6ZM172.68,227.38c-.4,14.6-1,16-8.5,17.8-3.3.9-4.8.9-5.9.1-1.6-1.4.3-6.9,8.7-25.2,6.2-13.6,6.3-13.6,5.7,7.3ZM338.48,213.08c3.64,2.79,33.67,30.19,31.3,34,1.5,7.3.7,9.8-3.6,11.3-5.4,1.8-6.2,1.6-55.3-12.6-9.1-2.6-18.1-5.6-20.2-6.6-7.4-3.7-10.2-12.3-5.5-16.6,3.6-3.3,7.5-4.9,20.7-8.1,17.92-3.96,23.23-6.88,32.6-1.4ZM181.98,228.98c3.97,11.19.83,11.03-6.1,11.4.07-6.63.12-19.97.1-26.6,2.15,4.68,4.24,9.73,6,15.2ZM277.88,216.58c0,2.7-2.8,4.4-9.3,5.3-4.8.7-4.5.2,2.3-4.5,5.4-3.7,7-3.9,7-.8ZM247.28,217.88c.4,1,.1,1.4-.6,1.2-3.25-1.55-.86-4.67.6-1.2ZM15.38,222.38c9.1,7.3,9.6,8.9,9.6,31.8,0,10.3-.3,19.4-.6,20.3-.8,2-4.6,3.5-11,4.3-5,.6-5.1.6-7.2-3.2-3.1-5.5-4.3-13.8-4.3-28.7,1.07-23.59.23-36.81,13.5-24.5ZM225.68,221.18c2.6,1,6.6,2.4,9,3,15.26,3.71-14.14,8.02-17.8,7.4-2.4-.6-3.4-4.7-2-8.9,1.4-4.1,3.7-4.4,10.8-1.5ZM452.68,221.78c3.3,2.8,5.6,7.7,11.8,25,3.95,12.75,20.67,44.09,7.3,47.9-27.55.86-31.09-11.3-32.3-44.4-.52-13.41,3.34-37.53,13.2-28.5ZM247.58,222.78c1.59,3.85-3.38,2.22-3.7-.1,0-1.9,2.9-1.8,3.7.1ZM280.08,226.78c5.52,15.86-24.24,1.81-21.8-.3,1.4-1.3,10.7-3.1,15.5-2.9,5.1.2,5.5.4,6.3,3.2ZM244.58,226.88c-.3.3-1.2.4-1.9.1-1.95-.75,2.98-.85,1.9-.1ZM374.78,232.98c2.5,2.7,9.9,10.6,16.4,17.7,10.7,11.8,14,16.6,12.3,18.3-1.3,1.3-4.9-1.7-20.5-16.8-15.8-15.2-16.1-15.6-16.1-19.7,0-5.7,2-5.5,7.9.5ZM247.88,230.18c0,1.1-4.9,4.3-5.9,3.9-1.99-3.12,3.76-6.66,5.9-3.9ZM237.38,231.18c2.44,4.74-17.67,17.48-21.9,18.8-1.6-.5-1.9-8.7-.5-11.5,1.7-3.1,3.9-4.2,12.4-6.3,8.4-2.1,9.2-2.2,10-1ZM262.38,234.28c1.59,1.94,22.7,19.84,20.5,21.2-2.75,4.85-28.45-28.35-20.5-21.2ZM246.88,235.08c-1.44,3.96-8.6,14.42-9.9,18.7-.62-5.84.98-13.96,4.6-17.1,2.5-2.4,5.3-3.2,5.3-1.6ZM38.08,245.48c4.76,6.18,17.66,17.37,19.2,22.7-1.2,1.2-26.1,5.4-27.4,4.6s-1.8-5.1-2.5-22.3c-.6-15.2-.6-15.3,1.4-14.3,1.1.6,5.3,4.8,9.3,9.3ZM276.68,238.38c4.94,1.3,4.92,5.5,3.4,8.2-.4.3-3.6-2.2-7.2-5.4-11.09-9.45-1.22-4.4,3.8-2.8ZM259.38,243.48c7.77,15.45,12.31,22,20,39.3,6.1,12.1,6.6,13.6,7.2,21.6.7,10.4-.3,12.9-5,12.9-10.53,1.31-15.92-14.58-18.5-27.5.12,5.29,2.03,19.1-1.2,20.7-2.1,2.7-2.4,2.8-12.2,2.8-11.9,0-16.9-1.3-21.4-5.6-10.34-7.65,9.28-51.3,16.2-61.2,6.1-9.5,7.8-7,12.9,18.4,10.31,52.1-1.58-21.13-2.4-24.8-1.4-6.1.7-4.5,4.4,3.4ZM211.88,245.38c1.02,11.01-12.25,20.31-17.9,11.4-2.1-4.2-2.7-14-1-15.1.7-.4,4.5-1.5,8.4-2.5,9.47-2.63,9.44-.43,10.5,6.2ZM266.98,245.38c2.1,3.2,5.9,7.4,8.5,9.5,5.8,4.8,8.4,9.8,8.4,16.4,0,8.5-1,7.6-11.2-11-5.76-10.29-21.85-35.88-5.7-14.9ZM301.88,245.18c29.81,9.7,92.61,21.29,77.1,53.2-16.87,21.09-23.66,13.25-59.3-16.9-22.09-20.72-53.67-44.49-17.8-36.3ZM135.88,250.98c0,.7-.8,1.3-1.8,1.3-2.68.8-.86-6.51-.9-8.5.8,1.73,2.56,5.93,2.7,7.2ZM187.18,246.08c2,1.96,4.84,12.24,6,16.3-2.83,4.77-11.08,11.8-14.8,11.9-2.2,0-2.3-.3-3-11.4-1.83-18.37,2.29-21.52,11.8-16.8ZM432.68,246.98c3.2,4.5,4.2,10,4.2,22.4,0,13.9-.3,14.4-7.6,12.5-10.6-2.9-10.4-2.7-10.4-10.3.1-10.7,2.1-18.5,6.1-23.1,3.78-3.92,4.4-5.94,7.7-1.5ZM170.78,249.78c1.85,2.89,2.07,21.7,2.3,28.2-4.45,4.23-17.13,13.86-18.6,13-.6-.2-2.7-3.4-4.6-7.2-4.5-9.1-4.5-14.2,0-24.7,3.8-9,4.5-9.7,10.8-11.4,6.5-1.8,8.4-1.4,10.1,2.1ZM232.28,254.48c2.19,6.65-12.55,32.47-16.7,28.9-1.7-1.7-1.2-18,.8-24.7,1.5-5.2,5.2-9.1,10.7-11.4,4.7-1.9,5.3-1,5.2,7.2ZM386.98,259.08c12.9,12.8,13.2,16.3.9,10.6-8.7-4-11.6-6.8-13.9-13-4.51-11.57,1.25-9.33,13,2.4ZM150.88,251.78c0,1.2-5,10.4-6,11-1.2.7-4.3-5.9-3.8-8.3-.36-1.65,7.15-4.2,9.8-2.7ZM138.78,260.08c4,7.8,3.8,10-1.9,21.6-2.8,5.8-5.6,10.9-6.2,11.2-1.3.8-.3-21.3,1.1-27.9.8-3.5,3.6-8.7,4.6-8.7.3,0,1.3,1.7,2.4,3.8ZM127.98,258.98c3.58,6.92-.91,35.47-1.3,37.8.27,1.07-30.09-3.03-40.2-4.7-3.89-4.15-17.99-18.45-18.1-21.1,1.25-4.67,22.07-6.75,28.5-8.7,10.58-1.38,24.92-7.88,31.1-3.3ZM416.38,264.88c-.8,6.3-2.1,7.6-4.7,4.4-2.6-3.1-2.3-4.9,1.4-8.7,3.8-3.9,4.3-3.2,3.3,4.3ZM297.08,263.48c19.29,16.45,17.33,16.74,47.1,39.9,7.1,5.6,13.3,11.2,13.9,12.4,1.7,3.7-.5,6.5-5,6.5-7.5-.1-11.5-3.1-33.8-25.5-27.1-27.4-33.9-35.2-32.3-37.1,1.9-2.3,3.4-1.7,10.1,3.8ZM211.38,261.98c1.2,2.9,1.7,30.6.6,32.2-4.28,4.22-7.53-13.98-10.3-17.7-3.6-8.3-3.6-10.4.5-13.6,3.7-3,8.2-3.4,9.2-.9ZM410.88,272.78c3.6,3.7,2.9,4.4-2.9,2.4-5.7-1.84-3.37-10.11,2.9-2.4ZM63.38,272.28c.8,1.3-2.3,11.6-3.8,12.8-2.3,1.8-6.6,2.2-14.3,1.2-29.61-4.01-9.16-11.43,5.6-13.4,8-1.7,11.7-1.9,12.5-.6ZM196.48,272.08c2.1,1.4,10.7,26.3,10.2,29.7-3.84,5.52-6.3,5.73-16.4,4-15.89-1.61-15.5-8.43-15.4-23.4,6.6-4.24,14.19-13.75,21.6-10.3ZM390.58,272.58c2.4.7,4.8,1.8,5.4,2.4,2.3,2.3-4.9,11.3-9.2,11.3-3.3,0-6.8-8.5-5.4-13,.7-2.3,3.2-2.5,9.2-.7ZM297.38,279.48c7,7.3,23.5,27,28.8,34.4,5.8,8.1,4.5,11.4-4.5,11.4-25.92,2.55-47.48-72.32-24.3-45.8ZM145.78,280.48c3.43,7.62,2.57,17.39-5.7,18.8-2.6,0-6.2-2.5-6.2-4.4,0-1.6,8.4-20.6,9.1-20.6.4,0,1.7,2.8,2.8,6.2ZM74.78,282.28c9.1,8.9,8.4,10-4.9,8-9.4-1.5-9.1-1.2-7.4-6.7,2.28-8.73,2.58-10.24,12.3-1.3ZM27.98,278.48c-.1.5-.1,1.7-.1,2.8,1.22,3.85-7.44.53-10.5-.3,2.24-1.09,10.98-5.17,10.6-2.5ZM225.88,285.48c-1.43,6.63-8.16,26.95-10.4,18.5-3.62-7.05,6.86-25.09,11.1-26.3.3.3,0,3.8-.7,7.8ZM406.48,281.18c4,6.2,4.3,13.8.9,24.2-4.1,12.2-9.2,16-14.3,10.6-4.4-4.7-6.7-20.9-3.7-26.6,1.7-3.4,11.2-12.1,13.1-12.1.8,0,2.5,1.8,4,3.9ZM413.68,280.98c.79,3.95-8.21-2.56-2.8-1.5,1.3.1,2.5.9,2.8,1.5ZM423.28,285.98c.52,1.75,21.99,21.21,14.7,20.3-1.7,0-20.1-17.6-20.9-20.1-.45-5.36,3.09-4.52,6.2-.2ZM19.58,286.28c10.42,6.1,6.56,8.96,8.9,25.5,1.47,21.79,4.07,31.55,1.9,51-1.99-2.59-42.9-95.9-10.8-76.5ZM172.88,291.18c0,9.1-1.3,10.6-8.6,9.7-13.1-1.5-13.8-4.8-2.4-10.8,4.1-2.2,7.9-4.3,8.5-4.9,2-1.9,2.5-.7,2.5,6ZM433.88,287.28c5.14,1.62,8.98,11.62,6.1,14-1.08-.49-12.3-10.44-11.6-15,.8-1.3,1-1.3,5.5,1ZM51.68,291.28c5.8,3.6,5.9,4.8.3,22-3.79,8.28-16.83,66.85-18.5,34.6-1.6-19.2-3.3-53.1-2.9-54.3,1.7-4.4,15.2-5.9,21.1-2.3ZM426.48,298.58c2.48,4.46,9.71,9.62,9.5,13.6-1.2,1.9-13.9,3.6-18.6,2.5-3.7-.9-4.1-1.3-4.9-5.5-1.41-7.53.48-14.51,4.4-20,3.51,2.5,6.26,4.98,9.6,9.4ZM459.28,295.38c15.7,5.3,18.6,6.7,18.6,8.9s-1.2,2.6-10.5,4c-12.2,1.7-16.1,1.4-19.6-1.8-3.94-1.92-5.51-15.17-1.7-15.2.6,0,6.6,1.8,13.2,4.1ZM81.48,295.18c4.7,2.1,16.8,13.2,20.7,18.8,5.7,8.3,7.4,6.4-27.2,29.3-36.1,23.8-35.8,23.7-36.7,22.7-.4-.3.8-4.6,2.5-9.4,2.97-6.34,17.72-62.56,22-62,2.5-1.9,14-1.5,18.7.6ZM109.68,297.98c13.7,3.1,14.8,4,12.6,9.1-2.1,5.3-4.5,7.3-9.2,7.9-4.1.6-4.3.5-13.3-8.3-5-4.9-9.5-9.7-10-10.6-2.4-3.89,14.7,1.12,19.9,1.9ZM152.08,298.78c1.21,3.79-3.42,2.45-5.1,1.6-1-.7-.8-1.2,1-2.5,3.1-2.1,3.6-2,4.1.9ZM386.58,301.88c.62,4.22,3.11,15.72-.9,17.8-5.45,3.39-20.48,3.95-17.1-5.7,2-3.7,14.8-17.7,15.7-17.4.6.2,1.6,2.6,2.3,5.3ZM296.78,307.98c2.8,5.3,4.9,10.2,4.7,11-.4,1-1.8,1.3-4.2,1.1-5.6-.5-7.6-3.9-8.2-13.8-.6-11,1-10.6,7.7,1.7ZM137.28,300.58l2.8,1.2c-2.06,1.4-9.59,6.33-10.6,6.5-1,0-.7-5,.4-7.1,1.2-2.2,3.3-2.3,7.4-.6ZM170.08,305.78c3.2,1.3,3.8,5.9,3.1,24.6-.8,24.2-1.6,24-10.9-3.6-4-11.6-6.9-21.3-6.5-21.7,1.5-1.6,9.7-1.3,14.3.7ZM152.98,308.28c2.88,9.59,9.23,26.79,11.7,36.7.4,3.8.2,4.2-2.6,5.7-9.24,6.03-25.37-5.68-34.4-15.9.89-11.27-.81-24.28,10.3-27.8,5.68-2.78,12.4-4.76,15,1.3ZM210.58,306.78c1.63,3.57-3.99,2.82-3.1,0,.8-1.9,2.3-1.9,3.1,0ZM485.18,310.98c3.63,3.58-2.69,15.1-2.9,19.6-5.19,15.02-7.88,8.63-18.4-2.5-11.98-13.52-15.69-15.65,2.5-18.5,15.2-2.7,16.4-2.6,18.8,1.4ZM196.08,310.88c1.7,1.1.7,4.2-3.5,10.9-4.04,5.51-8.49,20.43-11,25.2-1.4,1.9-4.4,1.6-5.2-.5-.7-1.8.4-35.1,1.3-36.6.5-.8,16.8.1,18.4,1ZM445.38,310.28c.72,1.49-1.61,1.08-1.5,0,.01-1.56.92-1.05,1.5,0ZM219.18,311.98c.48,1.1-1.43,6.88-2,8.8-2.41-4.47-4.09-12.04,2-8.8ZM212.08,313.98c1.5,1.3,1.8,3.2,1.8,11,.82,21.35-10.17,20.91-24.7,22.8-4.1,1.3-2.7-3.9,4.3-16.8,9.3-17.3,13.8-21.4,18.6-17ZM250.08,315.88c20.92,2.13,24.27,10.13,10.3,19.2-3,1.5-17.1,4.9-23.5,5.6-9.1,1-14.7-3-17.1-12.5-2.95-17.68,7.91-14.49,30.3-12.3ZM119.98,320.68c-2.33,4.41-1.78,6.39-4.5,2.1-1.6-2.4-1.5-2.5,2.1-4.9,5.16-3.52,4.59-2.79,2.4,2.8ZM126.38,316.98c-1.26,1.33-.58,18.9-4.9,11.2-2.68-1.99,1.55-9.73,2.7-11.7,1.4-1.8,3-1.5,2.2.5ZM438.58,317.48c4.7,5.2,5.5,17.5,1.3,21.3-1.7,1.5-3.1,1.7-9.2,1.1-11-1-14.2-2.2-18.2-6.6-3.8-4.3-4.5-7.8-2.4-12.4,1.2-2.7,2.1-3,14.3-4.5,11.1-1.3,12-1.3,14.2,1.1ZM458.98,325.98c9.22,9.77,8.5,8.93,8.7,16.3-4.76-.14-15.73.87-17.3-2.4-3.93-3.42-9.64-24.14,1.2-17.3.4.8,4.2,4.5,8.3,8.3,7.2,6.7,7.3,6.7,3.2,1.7-2.8-3.94-13.87-13.75-16.2-16.8,0-1.5,4.3,2.1,12.1,10.2ZM340.98,321.28c6,3.1,6.9,5,2.3,5-6.49.89-18.24-13.85-2.3-5ZM402.88,321.18c2.4,4.7.2,14.5-3,12.6-2-1.2-5.2-9.4-4.5-11.5.26-2.05,5.77-4.62,7.5-1.1ZM365.78,321.18c2.08,2.4-.55,3.23,4.5,5.7,7.13,3.55,5.03,5.66-3.9,4.4-6.7-1-10-5.8-4.2-6.1,1.7-.1,1.8-.2.5-.6-4.18-.5.74-6.16,3.1-3.4ZM285.68,323.28c9.13,3.39,2.18,12.28-5.8,12-7.98.98-9.57-7.93-6.8-12.8,1.8-1.8,7.7-1.4,12.6.8ZM391.38,326.78c6.88,15.46-16.7,1.58-16.7-1.5-1.6-1.97,14.47-3.62,14.4-3.3.3.2,1.4,2.3,2.3,4.8ZM306.58,325.88c4.72,6.88-15.35,7.68-14.5,2.5-2.55-6.87,12.1-5.35,14.5-2.5ZM113.28,324.88c4.69,3.18-3.18,12.95-9.5,25-4.9,8.1-8.7,11.4-13.6,11.4-7.36,1.75-43.68,8.4-44.3,5.3,0-1.4,2.7-3.6,9.5-7.3,6.9-3.9,24.6-15.4,38.7-25.3,7.31-5.07,12.55-8.22,17.5-9.6.1-.1.8.2,1.7.5ZM323.58,326.28c9.16.76-13.36,4.3-13.2,2-6.85-5.28,12.04-1.44,13.2-2ZM355.88,327.28c.88,2.69-9.96,1.99-6.9-.1,1.9-1.2,6.9-1.1,6.9.1ZM350.68,330.78c1,1-.9,3.5-2.7,3.5s-4.1-2.6-4.1-4.6c0-.7,6,.2,6.8,1.1ZM121.28,333.18c4.15.79,2.38,21.59.9,24.2-1.1,1.1-17.3,4.1-18.2,3.3s12.5-30.4,13.8-30.4c.4,0,2,1.3,3.5,2.9ZM340.88,333.18c4.83,5.66,4.35,8.34-3.8,16.2-4.2,4.2-7.7,6.9-9,6.9-5.8,0-15.5-19.9-11-22.6,5.6-3.5,19.3-3.7,23.8-.5ZM221.08,335.38c6.02,11.83-5.54,6.97-5.2-.2,0-5.1,2.6-5,5.2.2ZM380.38,336.28c6.3,2.8,14.2,9.1,16.6,13.4,3.55,3.04.06,19.64,2,13.8,1.4-4.6,3.9-3.8,6.2,1.8,1.6,4.1,1.7,2.9.1-2.8-.47-9.39,21.39,13.16,27.8,17.2,11,8.5,12.8,10.7,12.8,16,0,8.9-11.1,21.6-18.9,21.6-8.72-.19-6.74-6.29-11.7-19.3-2.7-9.2-5-16.4-5.2-15.9-.1.4.9,4.8,2.4,9.8,3.7,12.5,4.8,18.4,3.5,19.7-2.59,2.82-14.97-11.41-18.6-16.8v-13.3q.1-13.2-1.2-7.1c-1.3,6.4-3.5,9.9-6.2,9.9-5.42-.02-25.27-30.7-32.3-37.8-5.41-6.45-8.08-6.93-1.7-11,3.08-3.97,20-1.03,24.4.8ZM310.98,336.28c10.43,14.14,17.73,28.65-.4,42.7-6,5.7-10.7,7-12.6,3.5-2.37-4.96-4.09-30.49-3.6-41.4,4.01-4.47,11.02-7.79,16.6-4.8ZM395.78,338.88c1.4,1.6,3.4,7.4,2.8,8-.6.7-11.7-8.5-11.7-9.7,0-.9,8,.6,8.9,1.7ZM287.48,338.88c1.9.9,3.6,2.6,3.9,3.8,1.07,4.79,6.75,75.7-3.8,51.8-6.47-16.79-20.54-63.79-.1-55.6ZM401.88,341.78c0,5.4-1.5,5.9-2.9.8-2.38-6.33,3.54-7.79,2.9-.8ZM427.38,341.38c17.1,3.4,18.8,5.5,20.6,24.6,1.4,15,1,17.3-3.2,17.3-5,0-9.5-2.8-20.3-12.4-10.04-9.99-26.8-18.52-18.1-30.2,2.9-2.9,3-2.9,21,.7ZM134.98,346.48c3.8,4,6.9,7.6,6.9,8,0,.3-2.8.9-6.1,1.3-7.1.8-7.9.2-7.9-6.1-.07-10.23-4.24-14.71,7.1-3.2ZM266.98,341.38c11.17,8.94,6.99,11.69,11.8,29.6,3.9,27.18,12.33,38.01-4.7,54.5-7.5,7.1-13,7.7-16.8,2-5.83-8.56-11.08-32.71-16.9-46.4-9.3-23.9-10.5-29.2-7.7-33.6.5-.7,4.2-2.1,8.3-3.2,8.93-1.99,18.29-6.68,26-2.9ZM213.98,344.58c-2.43,2.2-.31-7.24.7-2.8.2.9-.1,2.2-.7,2.8ZM351.28,345.88c11.88,11.92,45.38,47.01,36.1,69.9-1.78,9.54-3.36,19.4-4.6,28.7-.8,5-1.4,6.5-2.4,6.2-16.74-18.3-44.92-74.99-46.3-86.4-1.52-8.37,8.08-20.62,17.2-18.4ZM227.58,353.78c11.91,29.49,17.54,49.32,25.9,70.1,2.86,8.97,7.07,10.83,1.8,15.3-6.6,5.2-16.7,4.5-23.6-1.7-8.2-7.4-11.1-17.3-12.9-44.7-2.5-37.1-2.4-40.9.8-44,3-3,5.5-1.4,8,5ZM472.58,349.88c1.8,2.5.5,6.9-5.1,17.3-6,10.9-12.8,19.2-14.6,17.5-1.4-1.4-3.5-25.9-2.6-30.7,1.2-6.2,2.8-7.1,12.5-6.4,6.3.5,8.9,1.1,9.8,2.3ZM205.88,350.18c4.78,10.27-10.43,50.21-15.6,48.1-1.4,0-1.5-.1-7-16.5-6.41-19.17-7.14-29.11,8.2-32.1,10.3-1.8,13.2-1.7,14.4.5ZM179.88,351.98c-.04,1.11-3.83,6.9-4.9,8.8-.07-1.93-.3-7.99.6-8.8.9-.9,4.3-.9,4.3,0ZM173.88,355.28c.26,6.7-2.82-.06-2.3-2.3,1-1.7,2.3-.5,2.3,2.3ZM215.78,384.48c-.82,18.86,4.48,41.62-6.9,32.5-14.44-14.96-8.11-20.9-.8-54,2.1-8.1,4.3-11.6,6.1-9.8.6.6,1.2,13.2,1.6,31.3ZM169.28,357.38c1.4,1.7,2.6,3.9,2.6,5,0,4.6-5.7,11.8-8.2,10.2-2.8-1.7-15.1-15.3-14.5-16,1-.9,7.5-2.1,12.9-2.2,4-.1,5,.3,7.2,3ZM146.78,359.68c3.8,2,14.1,14.8,14.1,17.5s-1.4,5.5-10.5,22.1c-7.33,12.11-13.21,35-26.6,25.9-4.08-2.88.41-24.6.2-37.6.7-11.7,1.7-22.3,2.3-23.5,2.5-5.1,14.3-7.6,20.5-4.4ZM120.68,363.98c3.28,1.63-2.31,40.1-1.8,48.5,0,9.8-1.2,13.4-4.6,14.2-4.74.43-27.43-1.67-33.8-7.3-1.7-1.8-1.6-2.1.2-5.8,1.1-2.1,5-11.5,8.7-20.8,8.8-22.1,10.6-25.6,14.6-27.9,6.5-3.8,14.2-4.2,16.7-.9ZM93.28,368.78c-1.03,8.79-8.2,22.75-11.9,32.6-6.5,15.9-7.4,17-12.3,14.5-8.2-4.2-30.4-35.4-28.6-40.1.87-3.16,26.27-6.82,34.4-9.1,7.16-.83,20.13-5.65,18.4,2.1ZM173.48,374.78c.21,3.66,1.01,10.59-3.2,5.2-4.97-3.21,1.96-15.95,3.2-5.2ZM330.78,371.68c8.36,15.9,35.06,64.51,36.9,70.9,4.04,15.9-39.81,11.44-52.4,5.4-4.5-2.3-10.5-8.7-12.8-13.7-2.91-2.08-2.87-36.92,0-39,4.09-7.68,20.34-29.66,28.3-23.6ZM179.68,381.28c3,8.5,2.7,10.1-1.5,6.6-3-2.5-3.3-3.3-3.3-8.3,0-7.3,1.8-6.6,4.8,1.7ZM170.48,385.08c2.6,1.7,3.2,5.3,2.9,19-.3,14.3-.3,14.4-3.1,17.4-5.7,6-10.3,8.2-17.2,8.3-10.5,0-10.9-2.6-3.2-19,5.03-8.73,13.71-29.55,20.6-25.7ZM392.88,393.48c0,3-1.8,2-4-2.2-5.81-10.17,3.97-.44,4,2.2ZM181.98,394.28c2.6,1.5,4.2,5,6.9,15.5s2.4,14-2,20.9l-3,4.7c-10.18-4.5-7.56-9.39-8.8-23.4-.71-14.24-.16-20.73,6.9-17.7ZM407.68,410.08c8.98,11.46,11.58,15.66,5.5,24.5-3.8,4-17.1,12.7-19.5,12.7-6.14-2.72-7.48-3.39-6.5-14.3.7-10.6,4.4-30.6,5.9-32.5,2.7-3.2,6.2-.9,14.6,9.6ZM193.28,405.58c1.6,2.2,1.8,3.1.8,5.2-3.18,9.72-9.24-17.32-.8-5.2ZM295.28,407.88c2.57,1.5,4.38,37.25,4.1,40.2-4.57-1.07-4.21-8.41-5.8-14.8-4-19.7-4.4-23-3-25,1.7-2.4,2.7-2.5,4.7-.4ZM208.08,421.08c6.1,6.1,7.7,8.3,7.2,9.8-5.34,10.88-14.11,4.08-19.2-7.4-2-4.4-2.2-5.8-1.3-7.8,1.9-4.2,4.9-3,13.3,5.4ZM289.28,421.48c3.21,15.53-4.22,27.96-19.5,22.8-8.71-6.59,14.91-22.32,18-25,.5,0,1.1,1,1.5,2.2ZM96.78,427.28c18.3,2.5,19.7,2.9,20.6,7,1.3,6-1.5,19-4.1,19-.9,0-3.6-1.4-6.2-3.2-8.1-5.4-28.2-21.9-29.3-24-1-1.9-.9-2,1.5-1.4,1.4.3,9.3,1.5,17.5,2.6ZM173.68,429.18c1.56,7.29-7.76,1.77-4.8-1.4,1.8-2.2,4.4-1.5,4.8,1.4ZM195.88,431.28c1.1,2.3,1.8,4.5,1.5,5-1.1,1.8-7.5.8-7.5-1.1,0-1.4,2.8-7.9,3.4-7.9.3,0,1.5,1.8,2.6,4ZM130.78,432.68c3.01.48-5.72,13.82-9.4,19.1-.77-6.94-.58-25.5,9.4-19.1ZM221.88,435.38c1.2,2.2.7,4.9-.9,4.9-3.89-.57-3.43-11.4.9-4.9ZM166.08,437.88c7.3,5.1,8.3,8,8,22.4-.1,6.8-.5,13.2-.8,14.2-7.97,8.89-27.88-.35-38-6.7-27.14-18.44,14.46-42.68,30.8-29.9ZM184.28,439.18c1.7,1.9,1.7,2.4-.8,10.8-2.3,6.51-3.38,17.05-5.6,21.3-2,0-2.3-30.1-.4-33.2,1-1.5,5.1-.8,6.8,1.1ZM213.38,441.68c1.5,1.1,2,3.4,2.6,14.2-.07,8.32,3.76,24.4-1,24.8-.7-.7-13.1-35.7-13.1-36.9,1.49-3.55,8.12-4.61,11.5-2.1ZM231.98,447.98c6.96,9.22,11.73,13.47,6.6,21.4-2.8,4.5-15.8,19.9-16.7,19.9-2,0-2.5-16.1-1.2-32.7,1.1-12.5,5.1-15.6,11.3-8.6ZM251.68,446.58c4.1,3.3-2.9,12.3-7.6,9.8-1.8-1-9.2-9.4-9.2-10.5,0-1.7,14.5-1.1,16.8.7ZM269.58,467.28c3.4,9.1,6.2,17.1,6.3,17.8-5.02,2.18-18.5-14.24-20.4-18.9-1.5-3.7-.6-8.2,2.8-13.5,3.2-4.8,4.7-2.9,11.3,14.6ZM329.88,454.78c7.6,1.28,34.25,3.71,40.3,5.4,2.75,7.96-26.86,14.54-38.3,19.5-16.6,6-20.9,6.7-23.8,3.8-1.9-1.9-4.1-12.3-4.4-21.6-.4-8.9,4.2-10.1,26.2-7.1Z" fill="none" stroke="#E6B500" stroke-width="2"/>
<path class="cls-2" d="M262.08,287.28c.12,3.52,1.03-.24.5-1.3-.3-.6-.5-.1-.5,1.3Z" fill="none" stroke="#E6B500" stroke-width="2"/>
<path class="cls-2" d="M407.98,374.88c.14,2.76,1.29-.92.5-1.3-.3-.4-.6.2-.5,1.3Z" fill="none" stroke="#E6B500" stroke-width="2"/>
<path class="cls-2" d="M408.98,378.88c.14,2.76,1.29-.92.5-1.3-.3-.4-.6.2-.5,1.3Z" fill="none" stroke="#E6B500" stroke-width="2"/>
<path class="cls-2" d="M299.08,470.28c.12,3.52,1.03-.24.5-1.3-.3-.6-.5-.1-.5,1.3Z" fill="none" stroke="#E6B500" stroke-width="2"/>


<path class="cls-1" d="M209.38,2.38C124.99,14.47,62.38,65.65,22.58,143.87-22.24,228.87,2.31,359.63,72.78,424.87c26.41,28.72,82.95,62.46,116.5,66.3,5.8-.1,5.9-.1,2.3-1-13.47-3.3-11.33-11.81-8.8-27.1,8.1-36.05,16.23-28.61,26.2,7.2,5.24,17.11,4.47,13.18,2.9,21,5.36-.2,12.92,1.19,15.7-3.2,4.35-4.99,15.2-22.42,20.4-21.8,1.2,0,6.8,4.8,14.5,12.5,12.3,12.2,12.6,12.5,17,12.5,0,0,4.4,0,4.4,0-6.66-7.26-14.73-30.13-13.4-36.2,1-3.2,6.5-4.9,13.1-4.2,10.55.16,12.84,7.2,15.3,16.9-.44-3.34-.9-8.24-1.6-11.3-.5-2.5-.3-3.2.9-3.2,2,0,2.5,1.6,3.2,10.7.31,4.17,2.52,22.78-.8,11.3-.2-1.4-.3.5-.3,4.2.32,7.47-1.17,7.94-4.7,11.8,13.3-.39,16.11,1.22,32.4-4.9,65.66-21.7,105.74-61.62,142.8-118.2,47.63-91.52,29.09-224.81-52.4-297.1-12.4-11.6-29.3-24.9-24.2-19.1.9,1.1,1.7,2.8,1.7,3.8,0,1.6-.7,1.7-6.2,1.2-9.2-.9-12-2.2-15.1-6.9-2.8-4.3-4.5-10.4-3.2-11.6.3-.4,3,.6,5.8,2.1,3.9,2.1,4.6,2.3,2.7.7-.91-2.01-43.19-21.85-27.9-13.5,14.69,7.25-2.35,9.96-15.6,15.5-21.5,6.8-25.3,5.6-30.6-9.8-4.34-12.48-1.05-19.83,14.3-15.2,18,4.9,26.2,6.9,26.5,6.6C306.98,5.72,252.4-5.08,209.38,2.38ZM248.08,5.48c6.7,8.9,6.9,15,.7,27.5-5.5,11.1-9.5,14.3-18.1,14.3-10.8,0-15.8-4.2-15.8-13.3.01-4.54-3.12-12.46-3-17.1,1.19-18.93,19.47-13.71,33.8-14.6l2.4,3.2ZM285.48,8.38c11.89,5.62,7.68,10.04,6.4,20.4-2.13,11.28-6.67,21.25-16.8,22.5-6.3,0-6.9-1.1-7.6-14,.13-18.54-9.38-41.74,18-28.9ZM204.28,8.28c1.1,1.1,2.2,29.6,1.2,33.4-1.1,4.5-4.6,3.3-11.4-3.7-8-8.2-15.2-17.6-15.2-19.9,1.28-8.77,20.72-13.88,25.4-9.8ZM262.18,15.48c.4,2.38,3.4,31.77-.5,31.1-4.9,4.9-15.8,4-15.8-1.3.62-4.01,9.86-20.05,10.7-24.5,2.2-7.4,4.6-9.7,5.6-5.3ZM169.48,16.78c1.4,2.1,1.6,4.4,1.2,12.6-.3,5.5-1,10.5-1.6,11.1-7.05,4.06-25.05-17.94-15-21.3,2.4-1.3,11.8-4.8,13-4.9.4,0,1.5,1.1,2.4,2.5ZM299.08,17.48c1.6,1.4,7.8,24,7.8,28.7.21,8.25-13.2,6.99-16.5,4.7-1.7-1.2-1.8-1.8-.6-7.2,4.22-16.34,5.09-31.06,9.3-26.2ZM179.98,23.98c2.4,3.2,6.6,8.4,9.6,11.6,2.9,3.2,5.3,6.7,5.3,7.8,2.3,3.22-18.18,1.75-18.2.6-4.71-1.85-8.43-38.57,3.3-20ZM211.38,33.58c1.4,6.5,2.5,12,2.5,12.3-6.5,1.35-7.44,0-6.5-14.3,1.22-16.99.8-11.16,4,2ZM140.88,28.48c-.1,2.9-3.2,9.9-5.2,11.6-1.1.9-4.1,1.2-9.5,1-13.29-.3-8.37-3.48,1.7-9.5,10.5-5.9,13-6.5,13-3.1ZM155.98,35.48l6.2,6.3c-2.27.29-6.41.7-8-.7-2.6-2.1-6.6-11.8-4.8-11.8.2,0,3.2,2.8,6.6,6.2ZM148.98,36.08c3.2,5.6,2.8,6.7-2.3,6-2.1-.3-2.3-.9-2.6-6.2-.4-7.1.7-7.1,4.9.2ZM141.98,36.88l-.9,3.9-.1-3.6c-.56-4.6,2.89-7.55,1-.3ZM360.58,40.28c.36,1.97-6.06,12.93-7.9,16.3-7.2-.49-24.91-1.52-29.5-1.7-7.7-.2-6.2-2.1,5.7-7.2,20-8.4,31.1-11,31.7-7.4ZM369.88,44.48c4.3,9,4,10.3-2.5,12.6-2.8,1-2.7,1,2.3,1.1,6.69-.87,13.66,6.61,7.8,10.6-4,2.6-30.7,12.5-33.7,12.5-3.8,0-3.7-1.2.5-9.6,4.7-9.3,8.8-13.4,13.5-13.5,7.32.08-2.25-1.19-1.9-3.3,0-1.1,5.3-12.1,7.3-15.4,1.7-2.6,3.9-1,6.7,5ZM132.08,44.38c2.3,1.3,2.3,4.5-.3,13.3-2.8,10-4,12.7-5.3,12.4-1.7-.5-7.6-13.2-8.8-19.1-1.7-8.2-1-9.1,6.4-8.3,3.4.4,7,1.2,8,1.7ZM141.48,45.78c.04,4.86.47,79.06-11.8,34.2-1.1-5.1-1-6.5,1.1-13.4,3.42-9.83,8.06-26.66,10.7-20.8ZM153.28,47.58c9.77,12.53,29.78,54.28.1,59.1-7.3,1.9-10.3,1.3-11.2-2.2.53-3.17-4.14-75.07,11.1-56.9ZM165.28,47.38c6.2,4.2,7.1,6.6,5.6,15.3-1.5,8.1-1.3,8.2-8.5-5.1-5.84-10.26-7.03-17.32,2.9-10.2ZM171.88,46.88c-.14,3.55-4.36-.79-3.4-1.9,1-.9,3.4.4,3.4,1.9ZM199.98,48.88c4.2,2.5,5.5,6,6.4,18.1.8,10,.2,14.3-1.9,14.3-7.83-5.74-16.78-18.24-24.4-24.3-9.5-9.56-5.93-11.53,6.4-10.5,7.7.4,11,.9,13.5,2.4ZM112.18,49.38c7.9,3.52,10.37,36.29,8.2,39-2.9,11.4-3.5,12.9-5.6,12.9-3.4,0-27-17.5-30.8-22.9-3.3-4.7-2.8-9.9,1.5-14.9,7.05-7.18,18.95-17.39,26.7-14.1ZM205.88,49.28c.04,1.27-1.97,1.29-2,0,0-1.32,2.06-1.3,2,0ZM215.18,53.68c.4,2.7.5,5.1.2,5.4-.7.7-7.5-5.9-7.5-7.3,1.1-4.48,7.01-5.11,7.3,1.9ZM236.38,50.98c4.03,5.08-2.85,17.91-5,21.9-1.5,1.8-1.7,1.7-5.9-2.8-5.6-6.1-9.6-17.5-6.9-20.1,1.07-.97,17.68-1.18,17.8,1ZM260.58,53.18c6.02,3.15,4.83,11.33.7,15-5.19,3.72-20.07,9.04-27.7,9.4.72-7.15,8.18-22.2,12.1-24.7,3.9-2.2,11.1-2,14.9.3ZM284.58,53.58c2.01,10.72-12.08,11.48-5.5,11.7,6.15-.22,1.98,5.16.4,14.1-3.13,9.46-3.09,15.8-6.2,20.6-2.31,2.46-3.08-22.08-3.7-29.3,1.67-1.45,5.08-4.31,6.8-5.7-4.4,1.48-8.81,1.73-8.5-4.8-1.2-9.33,11.11-8.52,16.7-6.6ZM295.28,55.88c4.91,1.89-3.3,4.1-6,4.4-1.4,0-1.9-3.1-.7-4.3.8-.9,4.6-.9,6.7-.1ZM186.48,65.68c9.1,10.42,28.44,25.18,5.5,28.3-4.3.5-5.1.2-8.2-2.5-8.15-7.53-15.24-27.05-7.5-35.2.7,0,5.3,4.2,10.2,9.4ZM337.28,58.28c3.3.5,6.3,1.3,6.8,1.8,2.4,2.4-11,23.6-15.8,24.8-10.05,1.86-7.71-5.87-10.5-14-2.4-10.2-2.4-11.5.4-12.6,3-1.2,11.9-1.2,19.1,0ZM212.68,59.88c3.9,2.7,5.2,6.7,5.2,15.8,0,7.6-.2,8.7-2,9.6-5.6,3-8-1.9-8-16,0-11.6.4-12.5,4.8-9.4ZM309.68,60.88c5.18,2.85,8.08,19.45,9.2,23.9,0,.8-1.5,3.1-3.2,5.1-2.48,2.71-31.05,20.74-36.8,14.8-2-1.9-2-2,0-13.9,1.2-6.6,3-13.9,4.1-16.2,3.07-5.94,17.08-20.01,26.7-13.7ZM397.28,59.88c3,1.1,1.6,2.3-5.3,4.5-7,2.3-9.7,2.1-10.7-.6-1.4-3.5.3-4.5,7.5-4.5,3.8,0,7.6.3,8.5.6ZM409.48,64.18c12.1,4.73-7.77,26.42-15.1,23.3-2.5-1.2-8.5-12.2-8.5-15.7-.78-6.15,20.09-11.95,23.6-7.6ZM225.28,74.38c7.23,7.05-4.56,15.18-4.4,1,0-4.9,1-5.1,4.4-1ZM265.28,73.48c2.74,5.35,1.25,9.97,3.1,17.8,2.8,16.1,1.7,22-3.9,20.6-3.4-.8-26.6-26.3-26.6-29.2s.4-3.1,12-7.5c11.3-4.4,13.4-4.6,15.4-1.7ZM381.28,74.28c14.79,11.43,3.31,25.69-13.3,43.1-23.3,23.4-27.1,24.2-33.5,7.1-6.6-17.7-6.3-25.8,1.3-34.4,6.72-7.92,43.76-20.27,45.5-15.8ZM428.58,82.28c5.5,5.8,12.3,16,12.3,18.7,0,1.4-11.7,9.2-13.8,9.3-1.6,0-4-5.5-4.6-10.7-.05-7.43-8.56-34.81,6.1-17.3ZM416.78,79.98c1.4,3.6,4.1,22.3,4.1,29.3,0,6.2-1.5,9.2-6.1,11.5-4.4,2.3-6.5.6-11-9-7-14.9-6.7-18.8,2.3-28.2,5.37-4.54,7.73-9.35,10.7-3.6ZM94.38,89.88c17.9,14.9,21.3,20.1,17.8,27.1-2.2,4.6-5.7,7.2-10.6,8-4.7.7-6.4-.7-10-8.4-8.3-18.4-12.9-36.3-9.1-36.3.3,0,5.7,4.3,11.9,9.6ZM75.28,83.38c4.09.12,18.17,40.45,11.5,42.7-3.5,3.8-15.4,9.1-33.2,14.8-9.5,3-18.7,6.1-20.5,6.9-4.7,2.1-6.7,1.9-8.2-1.1-1.3-2.3-1-3.3,4.2-13.4,15.96-27.3,33.93-58.39,46.2-49.9ZM178.38,89.28c3.2,6.3,3.1,7.8-.2,9.1-4.5,1.7-5.3.7-5.3-7.1,0-8.7,1.8-9.3,5.5-2ZM225.88,86.28c-1.17,2.22-2.92,2.93-3,0-.46-2.5,5.27-3.01,3,0ZM242.88,93.18c13.59,13.89,19.65,22.82.6,24.7-2.82-.71-12.98-10.99-16.6-14.4-.27-16.07,1.01-27.41,16-10.3ZM221.88,90.78c-.18,5.08-.35,6.42-4.4,2.9-3.3-3.2-3.2-6.5.4-7.5,3.5-.9,4-.3,4,4.6ZM132.28,96.48c5,13.1,5.3,15.2,2.5,17.2-6.12,4.22-14.71-.49-13.9-8.4,1.1-7.47,4.29-30.44,11.4-8.8ZM332.88,89.08c0,1.4-5.9,9.2-6.9,9.2-1.6,0-2.3-5.1-.9-6.7,2-2.5,7.8-4.3,7.8-2.5ZM215.78,94.98c1.7,2.1,3.1,4.6,3.1,5.6,0,2.3-6.7,15.7-7.9,15.7-.9,0-1.3-22.8-.5-24.2,1-1.5,2.3-.8,5.3,2.9ZM205.78,97.78c2.28,8.32,2.32,48.05-5.7,27.2-2.46-5.66-12.24-18.8-12-24.2.3-2.7.9-3.2,6.3-5.2,8.1-3,9.7-2.7,11.4,2.2ZM320.38,96.58c1.5,1.2,1.7,2.4,1.3,8.1-.7,7.8-1.8,9.9-15.1,27.8-10.8,14.6-11.7,14.8-20,5.8-5.7-6.1-12.7-18.6-12.7-22.6,0-3.4,3.7-5.7,17.3-10.8,9.44-2.49,24.32-12.18,29.2-8.3ZM223.88,98.28c.05,2.58-1.98,2.61-2,0,.02-2.61,2.05-2.58,2,0ZM184.68,102.98c5.06,8.08,14.64,25.66,10.2,33.8-1.9,2.3-17.8,7.1-19.1,5.8-2.95-2.3-5.97-54.23,8.9-39.6ZM397.28,103.58c5.7,7.5,7.2,16.5,3.7,22.3-2.5,4.1-7.7,8.2-26.1,20.6-19.3,12.9-24.3,15.5-27.5,14-11.26-15.54-2.35-16.3,32.2-51,11.2-10.6,13.5-11.4,17.7-5.9ZM224.48,106.98c2.1,4.5,3.1,16.2,1.5,19.1-1,1.9-10.4,6.2-13.6,6.2-1.1,0-1.5-1.2-1.5-4.3-1.27-2.32,8.7-23.33,10.9-24.7.5,0,1.7,1.7,2.7,3.7ZM168.98,106.98c1.9,2.2,2.7,35.7.9,37.8-2.3,2.7-5.6,1.6-12.6-4.3-7.9-6.7-10.9-11.4-11.9-18.7-1.1-9.1,0-10.2,16.5-15.8,3-1.1,5.8-.7,7.1,1ZM438.28,112.58c.74,8.21-1.69,24.32-2.3,34.3-1.1,12.1-1.9,16.4-3.1,16.4-3.92-7.51-13.75-51.04,4-54.5.4.3,1.1,2,1.4,3.8ZM452.68,114.98c7.77,8.7,29.59,42.93,20.6,57.3-2.4,2.4-20.6,8-26.2,8-13.49-2.23-13.85-9.68-9.4-25,1.1-4.1,2.7-15.4,3.7-25,2.88-22.61,1.16-25.67,11.3-15.3ZM235.08,114.98c5.3,5.3,5.9,6.8,2.6,7.7-4.9,1.3-6.6.7-7.7-2.5-1.2-3.6-1.5-9.9-.4-9.9.4,0,2.9,2.1,5.5,4.7ZM328.68,112.48c2.54,4.34,8.2,23.93,8.4,31.5-16.11,17.25-22.22,32.21-34.8,8.6-1-3.9,1.1-9.3,7.4-18.9,5.23-6.5,13.47-26.37,19-21.2ZM123.38,115.38c.9,1.4.4,1.8-3.3,2.5-2.9.6-3.2.4-3.2-1.9-.18-4.69,4.68-3.28,6.5-.6ZM269.18,114.98c-1.1,3.1-1.5,3.4-2.9,2.2-1.2-1-1.2-1.4.3-2.5,2.5-1.8,3.4-1.7,2.6.3ZM137.88,119.28c0,2.7-.3,5-.7,5-1,0-6.3-5.2-6.3-6.2,0-.7,4.8-3.7,6.3-3.8.4,0,.7,2.2.7,5ZM263.58,118.48c5.77,3.97,2.68,15.3-.4,19.5-1.6.6-12.2-9.4-13.4-12.4-1.2-3.3-.4-4.7,4.4-7.1,5.4-2.7,6.9-2.7,9.4,0ZM271.48,120.98c-1,1-1.9-.5-1-1.8,1.01-2.38,1.7,1.28,1,1.8ZM132.38,124.78l5.7,5.6c-.74,6.14-1.26,11.67-1.9,19.3-.6,8.4-.7,8.9-3.6,10.6-4,2.5-18.3,6.3-20.7,5.5s-6-8.1-6-12.3c2.67-10.16,8.56-48.44,26.5-28.7ZM142.38,122.28c2.2,4.3,2,6.3-.5,5-2.91-.73-2.81-13.07.5-5ZM422.68,121.68c1.5,3.3,4.6,29,3.8,31.1-1.1,2.9-3.5-.2-8.8-11-5.8-12.1-6.1-15.5-1.7-19.6,3.8-3.5,5.2-3.6,6.7-.5ZM246.08,125.98c4.6,3.2,13.4,13.9,14.9,18.2.9,2.5.4,5.2-2.9,16.8-3.85,10.91-7.07,33.04-11.7,38.3-2,0-6.5-19.9-10-44.2-3.6-25.4-3.5-28,1.9-30.4,4-1.7,3.4-1.8,7.8,1.3ZM110.88,125.58c.09,1.41-7.17,22.37-7.6,23.7-.4,1.2-.7,1.2-1.6-.4-1.9-3.4-4.9-20.6-3.5-20.6.1,0,2.7-.9,5.7-2,6.6-2.3,7-2.4,7-.7ZM272.28,126.48c1.06,5.36.79,14.8-1.6,19.3-3.35-3.62-4.87-7.09-2.9-13.1.88-2.06,2.15-12.63,4.5-6.2ZM208.88,131.18c.37,1.19-3,5.72-3,2.8-.17-3.14,2.62-7.1,3-2.8ZM284.08,138.08c12.12,9.97,12.03,30.75-4.4,15.9,0,0-4.8-4.4-4.8-4.4,0-3.87-.39-19.38,1.9-18.3.4,0,3.7,3.1,7.3,6.8ZM144.78,134.38c4.34,4.91,11.37,21.01-.2,22.3-5.6,1.1-6.6-.4-6.1-9.6.9-15.4,1.9-17.4,6.3-12.7ZM224.78,133.88c3.3,2.3,4.9,6.8,6.6,18.6,2.1,13.6,6.8,34.5,9.9,43.5,4.38,12.99,1.32,6.07-4.2-4-9.8-18.6-15.3-28-18.8-32-4.6-5.4-6.4-9.7-6.4-15.2,0-9.7,6.6-15.3,12.9-10.9ZM411.28,136.58c8.2,8.6,15.6,26.2,15.6,37s-3,12.3-26,16.7c-5.8,1.1-16.5,3.4-23.7,5.2-16.9,4.1-17.5,3.9-22.5-6.2-3.21-8.03-7.83-13.94-3.9-21.3,1.8-3.7,4.3-5.8,17.6-14.7,35.5-24,35.9-24.1,42.9-16.7ZM91.58,136.88c8.01,4.12,10.59,26.02,3.6,30.4-3.6,2.8-11.4,2.7-20-.5-6.6-2.75-32.11-6.82-38.4-9.1-14.8-7.72,2.69-8.64,18.6-15.4,25.5-7.75,23.09-10.35,36.2-5.4ZM208.88,139.28c-.09,4.92-.28,5.09-2.6.9-1.3-2.6-1.4-3.3-.2-4,2.3-1.5,2.8-1,2.8,3.1ZM199.88,140.88c-1.07,4.45-6.84,24.29-12.8,25.4-6.41-1.93-17.58-13.32-8.5-19.7,2.3-1.5,18.9-8.2,20.6-8.3.4,0,.7,1.2.7,2.6ZM157.98,144.98l6.1,5.7c-1.81.6-8.05,2.95-8.9,2.3-1.2-1.3-5.2-13.7-4.3-13.7.5,0,3.7,2.6,7.1,5.7ZM205.68,144.68c1.08,1.57,1.68,2.73,2.05,5.42.87,9.27,1.34,33.74.35,33.18-3.46-2.35-16.28-14.13-13.7-21,.7-3.8,7.6-21,8.5-21,.3,0,1.5,1.5,2.8,3.4ZM272.08,151.38c6.8,13.99,4.64,35.71-8,52-2.7,4.1-6.1,9.8-7.6,12.7-2.9,5.7-4,5.8-6.2.6-4.23-11.42,2.96-26.76,6.2-41.4,4.12-16.06,8.71-32.89,15.6-23.9ZM171.88,151.78c0,2.3-.2,2.4-2,1.5-2.1-1.1-2.5-2.2-1.3-3.3,1.5-1.6,3.3-.6,3.3,1.8ZM340.78,155.18c2.8,6.5,2.7,11.2-.1,13.8-4,3.7-12.1,8.3-14.5,8.3-2.9,0-7.3-4.5-7.3-7.5,0-2.8,15.4-19.5,18-19.5,1.2,0,2.5,1.7,3.9,4.9ZM168.28,155.38l2.6,2.1c-.09,5.61-.15,31.36-1.4,32.1-2.03-1.66-21.23-45.71-1.2-34.2ZM285.88,166.78c0,3.4-4.8,12.7-6.3,12.2-1.6-.5-2.5-5.7-2.7-14.7.42-7.56-2.27-12.1,4.5-4.8,3,3.1,4.5,5.6,4.5,7.3ZM300.98,157.58c5.73,4.57,11,10.83,5.4,16.3q-2.5,2.5-5.6.7c-3.6-2.1-8.9-8.1-8.9-10.1,0-1.5,4.2-9.2,5.1-9.2.3,0,2.1,1,4,2.3ZM153.38,158.48c.9,1.3,3.2,7.5,5.1,13.8,2.87,10.18,7.73,17.89,10.9,24.9,3.34,7.17-31.58-7.79-30-7.9-1.6-1.7-2.1-3.6-2.3-10.9-.5-11.7,1.5-16.8,7.9-19.9,5.6-2.7,6.4-2.7,8.4,0ZM37.78,161.68c64.56,16.68,54.21,13.41-4.3,35.6-6.2,2-7.3.1-9.1-16-.8-7.4-1.8-14.7-2.1-16.2-1.17-11.28,5.95-5.71,15.5-3.4ZM105.48,161.98c3.3,8,3.1,8.7-2.5,10.5-3.3,1.1-5.1,1.2-5.1.5,0-2.2,4.4-14.7,5.2-14.7.4,0,1.5,1.7,2.4,3.7ZM215.68,162.48c4.87,7.6,10.88,20.55,16.5,29,25.36,36.39-7.6,14.05-18.6-3-1.8-4.6-3.4-30.2-1.9-30.2.6,0,2.4,1.9,4,4.2ZM20.78,175.58c-.04,9.08,3.78,22.92-1.5,26.3-1.28,1.15-14.54,4.83-12.1.3.4-1.3,1.6-6.9,2.8-12.4,4.3-20.7,5.2-24.1,6.6-26.9,2.2-4.3,2.9-2.2,4.2,12.7ZM184.28,167.88c3.06,6.36-3.73,20.88-9.9,28.7,0,0-.3-16.4-.3-16.4-1.01-20.87,1.56-22.05,10.2-12.3ZM133.88,164.78c2.06,1.74-1.45,14.67-1,17.3.43,5.18-4.44,2.83-7.6,2.3-11.52-1.39-21.82-13.29-3.4-17.5,5.51-.73,8.65-5.8,12-2.1ZM295.58,172.48c5.5,5.4,4.2,9.7-5.6,19.1-5,4.7-6.4,5.7-7.6,4.7-7.21-4.2,3.73-35.49,13.2-23.8ZM318.98,174.48c1.6,1.8,2.9,4.2,2.9,5.3,0,2.7-6.9,6.8-9.6,5.9-3-1.1-5.4-3.6-5.4-5.5,0-2.3,5.7-8.9,7.7-8.9.8,0,2.7,1.5,4.4,3.2ZM345.78,175.08c5.3,5.3,8.8,19.2,6.1,24.3-1.6,2.8-5.7,2.4-8.5-.9-15.2-17.8-15.6-19.1-6.5-23.9,5.4-2.9,5.6-2.9,8.9.5ZM431.58,176.98c-.67,2.37-.67-4.66,0-3,.2.7.2,2.1,0,3ZM110.28,177.88c.9,2,1.5,3.8,1.3,4-.7.7-13.7-3.7-13.7-4.7.65-2.31,11.03-5.38,12.4.7ZM198.68,179.78c6.9,5.3,9.2,9.2,10.3,17.1,1,8.5,1.1,16.4.2,16.4-1.4,0-27.8-10.3-29.1-11.3-1.6-1.3-1.1-3.3,3-14,2.81-7.95,5.12-9.88,10.1-11.7.5,0,2.9,1.6,5.5,3.5ZM473.08,180.28c-.5,5.2-16.7,26-20.2,26-7.93-3.06-15.63-19.74-3.3-24.6,3.31,0,24.45-8.37,23.5-1.4ZM435.48,183.18c-2.82,2.46-4.47.68-3-2.4.58-3.09,3.79,1.19,3,2.4ZM89.08,181.98c6.16,7.65-7.7,33.03-10.8,47.2-15.21,50.93-17.08,32.92-42.6,7.8-8.45-7.86-15.57-32.11-6-36.3,18.36-2.66,52.83-25.43,59.4-18.7ZM106.78,183.38c8.8,3.35,18.6,48.85,21.8,57,.7,4-2.1,8.3-7.5,11.7-3.7,2.5-7,3.5-14.8,4.7-9.02.82-30.85,8.78-34.8,3.9-3.16-.12,17.97-60.76,22.6-68.1,5.83-9.69,5.43-11.34,12.7-9.2ZM485.58,185.98c2.8,5.2,4.9,12.1,6.9,22.8,1.5,4.58,3.23,92.94-7.3,81.7-.3-.9-4.2-9.8-8.6-19.7-16.7-38-20.7-48.4-20.7-54.5,0-5.5,3.5-11.4,13.9-23.3,10.7-12.1,12.5-12.9,15.8-7ZM308.88,185.28c1.1,1.1,2,2.5,2,3-2.66,3.65-13.8,9.16-18.4,12.6-10.3,6.8-10.6,6.9-10.6,3.9,0-1.8,2.5-5,9.5-12,10.3-10.3,13.4-11.6,17.5-7.5ZM333.78,190.98c4.5,4.3,8.1,8.6,8.1,9.5-2.02,8.4-11.43,4.72-18.1-3-3.8-3.8-6.9-7.6-6.9-8.5,0-1.5,5.5-5.7,7.7-5.7.6,0,4.8,3.5,9.2,7.7ZM443.38,197.78c5.45,11.93,6.5,15.16-1.5,24-2.6,2.5-2.9,2.6-3.8.9-1.3-2.6-4.9-18.6-5.7-25.5-.7-5.6.3-9.4,2.9-11.1,1.7-1.1,3.3,1.1,8.1,11.7ZM127.58,188.78c7.76-.69,4.13,30.69,3.8,42-4.77-8.05-7.85-19.82-11.5-29-3.67-10.83-7.49-19.54,7.7-13ZM426.28,189.58c2.3,1.7,2,5.2-1.7,19.2-1.5,5.5-3.8,17.4-5.2,26.4-2.9,18.7-4.3,22.1-9.7,23.5-7.2,1.8-10.7-.7-21.6-15.4-8-10.9-14.7-18.4-18.5-21-4.3-2.9-7.7-7.9-7.7-11.2,2.07-10.06,10.11-10.65,22.4-12.3,10.1-1.2,14.7-2.3,24.3-5.9,12.8-4.9,15-5.3,17.7-3.3ZM276.88,194.78c1.02,8.16-11.03,18.63-15.5,24.5,1.65.3,16.36-17.23,16.9-12.1,1.3,2-1,4.3-9.6,9.6-12.74,7.24-8.88,6.48-8.6,1.4-.2-1.3,6.9-14.3,13.4-24.7,2.1-3.2,3.4-2.7,3.4,1.3ZM319.78,196.58c2.85,2.58,10.02,7.24,7,10.2-4.48,2.68-23.77,4.64-29.4,6.7-12.3,3.4-13.7,3.7-15.1,3.1-7.42-5.02,20.26-19.27,23.3-21.9,5.6-2.9,7.8-2.6,14.2,1.9ZM156.78,198.38c13.1,5.17,15.08,6.3,7.8,22.2-4.38,8.39-7.79,23.71-13.2,26.5-7,3.2-13.9-.1-15.5-7.3-1.8-7.7-.6-41.1,1.6-44.6,1.1-1.9,10.1-.4,19.3,3.2ZM221.08,199.88c3.36,3.74,25.44,17.05,20.8,20.3-.6,1.2-1.3,2.1-1.6,2.1-1.7,0-18.4-5.5-21.5-7.1-8.39-2.58-10.84-27.1,2.3-15.3ZM432.88,214.78c1.2,13.8,1.2,14.2-1,19.3-2.6,5.9-8.3,11.7-8.8,8.9.25-3.08,7.21-71.25,9.8-28.2ZM357.28,205.48c1.9,3,3,8.8,1.8,8.8-1.4,0-7.2-6.8-7.2-8.4,0-3.3,3.4-3.5,5.4-.4ZM348.98,208.18c5.46,6.1,14.74,11.32,16.2,21.3.6,2.4.4,2.8-1.5,2.8-2.9,0-23.8-20.3-23.8-23.1,0-1.8,2.8-3.7,5.7-3.8.7-.1,2.2,1.2,3.4,2.8ZM19.78,208.38c1.8,1.9,4.8,14.5,3.7,15.6-1.25,2.51-14.8-11.16-15.6-13.8,0-.8,6.8-3.8,8.7-3.8.7-.1,2.1.8,3.2,2ZM193.38,210.18c5.5,1.7,11,3.7,12.1,4.5,4.2,3,6.7,12,4.8,17.1-1.08,4.55-16.5,6.85-21.2,4.7-1.5-1-9.2-24.3-9.2-27.9-.51-4.59,7.13.3,13.5,1.6ZM172.68,227.38c-.4,14.6-1,16-8.5,17.8-3.3.9-4.8.9-5.9.1-1.6-1.4.3-6.9,8.7-25.2,6.2-13.6,6.3-13.6,5.7,7.3ZM338.48,213.08c3.64,2.79,33.67,30.19,31.3,34,1.5,7.3.7,9.8-3.6,11.3-5.4,1.8-6.2,1.6-55.3-12.6-9.1-2.6-18.1-5.6-20.2-6.6-7.4-3.7-10.2-12.3-5.5-16.6,3.6-3.3,7.5-4.9,20.7-8.1,17.92-3.96,23.23-6.88,32.6-1.4ZM181.98,228.98c3.97,11.19.83,11.03-6.1,11.4.07-6.63.12-19.97.1-26.6,2.15,4.68,4.24,9.73,6,15.2ZM277.88,216.58c0,2.7-2.8,4.4-9.3,5.3-4.8.7-4.5.2,2.3-4.5,5.4-3.7,7-3.9,7-.8ZM247.28,217.88c.4,1,.1,1.4-.6,1.2-3.25-1.55-.86-4.67.6-1.2ZM15.38,222.38c9.1,7.3,9.6,8.9,9.6,31.8,0,10.3-.3,19.4-.6,20.3-.8,2-4.6,3.5-11,4.3-5,.6-5.1.6-7.2-3.2-3.1-5.5-4.3-13.8-4.3-28.7,1.07-23.59.23-36.81,13.5-24.5ZM225.68,221.18c2.6,1,6.6,2.4,9,3,15.26,3.71-14.14,8.02-17.8,7.4-2.4-.6-3.4-4.7-2-8.9,1.4-4.1,3.7-4.4,10.8-1.5ZM452.68,221.78c3.3,2.8,5.6,7.7,11.8,25,3.95,12.75,20.67,44.09,7.3,47.9-27.55.86-31.09-11.3-32.3-44.4-.52-13.41,3.34-37.53,13.2-28.5ZM247.58,222.78c1.59,3.85-3.38,2.22-3.7-.1,0-1.9,2.9-1.8,3.7.1ZM280.08,226.78c5.52,15.86-24.24,1.81-21.8-.3,1.4-1.3,10.7-3.1,15.5-2.9,5.1.2,5.5.4,6.3,3.2ZM244.58,226.88c-.3.3-1.2.4-1.9.1-1.95-.75,2.98-.85,1.9-.1ZM374.78,232.98c2.5,2.7,9.9,10.6,16.4,17.7,10.7,11.8,14,16.6,12.3,18.3-1.3,1.3-4.9-1.7-20.5-16.8-15.8-15.2-16.1-15.6-16.1-19.7,0-5.7,2-5.5,7.9.5ZM247.88,230.18c0,1.1-4.9,4.3-5.9,3.9-1.99-3.12,3.76-6.66,5.9-3.9ZM237.38,231.18c2.44,4.74-17.67,17.48-21.9,18.8-1.6-.5-1.9-8.7-.5-11.5,1.7-3.1,3.9-4.2,12.4-6.3,8.4-2.1,9.2-2.2,10-1ZM262.38,234.28c1.59,1.94,22.7,19.84,20.5,21.2-2.75,4.85-28.45-28.35-20.5-21.2ZM246.88,235.08c-1.44,3.96-8.6,14.42-9.9,18.7-.62-5.84.98-13.96,4.6-17.1,2.5-2.4,5.3-3.2,5.3-1.6ZM38.08,245.48c4.76,6.18,17.66,17.37,19.2,22.7-1.2,1.2-26.1,5.4-27.4,4.6s-1.8-5.1-2.5-22.3c-.6-15.2-.6-15.3,1.4-14.3,1.1.6,5.3,4.8,9.3,9.3ZM276.68,238.38c4.94,1.3,4.92,5.5,3.4,8.2-.4.3-3.6-2.2-7.2-5.4-11.09-9.45-1.22-4.4,3.8-2.8ZM259.38,243.48c7.77,15.45,12.31,22,20,39.3,6.1,12.1,6.6,13.6,7.2,21.6.7,10.4-.3,12.9-5,12.9-10.53,1.31-15.92-14.58-18.5-27.5.12,5.29,2.03,19.1-1.2,20.7-2.1,2.7-2.4,2.8-12.2,2.8-11.9,0-16.9-1.3-21.4-5.6-10.34-7.65,9.28-51.3,16.2-61.2,6.1-9.5,7.8-7,12.9,18.4,10.31,52.1-1.58-21.13-2.4-24.8-1.4-6.1.7-4.5,4.4,3.4ZM211.88,245.38c1.02,11.01-12.25,20.31-17.9,11.4-2.1-4.2-2.7-14-1-15.1.7-.4,4.5-1.5,8.4-2.5,9.47-2.63,9.44-.43,10.5,6.2ZM266.98,245.38c2.1,3.2,5.9,7.4,8.5,9.5,5.8,4.8,8.4,9.8,8.4,16.4,0,8.5-1,7.6-11.2-11-5.76-10.29-21.85-35.88-5.7-14.9ZM301.88,245.18c29.81,9.7,92.61,21.29,77.1,53.2-16.87,21.09-23.66,13.25-59.3-16.9-22.09-20.72-53.67-44.49-17.8-36.3ZM135.88,250.98c0,.7-.8,1.3-1.8,1.3-2.68.8-.86-6.51-.9-8.5.8,1.73,2.56,5.93,2.7,7.2ZM187.18,246.08c2,1.96,4.84,12.24,6,16.3-2.83,4.77-11.08,11.8-14.8,11.9-2.2,0-2.3-.3-3-11.4-1.83-18.37,2.29-21.52,11.8-16.8ZM432.68,246.98c3.2,4.5,4.2,10,4.2,22.4,0,13.9-.3,14.4-7.6,12.5-10.6-2.9-10.4-2.7-10.4-10.3.1-10.7,2.1-18.5,6.1-23.1,3.78-3.92,4.4-5.94,7.7-1.5ZM170.78,249.78c1.85,2.89,2.07,21.7,2.3,28.2-4.45,4.23-17.13,13.86-18.6,13-.6-.2-2.7-3.4-4.6-7.2-4.5-9.1-4.5-14.2,0-24.7,3.8-9,4.5-9.7,10.8-11.4,6.5-1.8,8.4-1.4,10.1,2.1ZM232.28,254.48c2.19,6.65-12.55,32.47-16.7,28.9-1.7-1.7-1.2-18,.8-24.7,1.5-5.2,5.2-9.1,10.7-11.4,4.7-1.9,5.3-1,5.2,7.2ZM386.98,259.08c12.9,12.8,13.2,16.3.9,10.6-8.7-4-11.6-6.8-13.9-13-4.51-11.57,1.25-9.33,13,2.4ZM150.88,251.78c0,1.2-5,10.4-6,11-1.2.7-4.3-5.9-3.8-8.3-.36-1.65,7.15-4.2,9.8-2.7ZM138.78,260.08c4,7.8,3.8,10-1.9,21.6-2.8,5.8-5.6,10.9-6.2,11.2-1.3.8-.3-21.3,1.1-27.9.8-3.5,3.6-8.7,4.6-8.7.3,0,1.3,1.7,2.4,3.8ZM127.98,258.98c3.58,6.92-.91,35.47-1.3,37.8.27,1.07-30.09-3.03-40.2-4.7-3.89-4.15-17.99-18.45-18.1-21.1,1.25-4.67,22.07-6.75,28.5-8.7,10.58-1.38,24.92-7.88,31.1-3.3ZM416.38,264.88c-.8,6.3-2.1,7.6-4.7,4.4-2.6-3.1-2.3-4.9,1.4-8.7,3.8-3.9,4.3-3.2,3.3,4.3ZM297.08,263.48c19.29,16.45,17.33,16.74,47.1,39.9,7.1,5.6,13.3,11.2,13.9,12.4,1.7,3.7-.5,6.5-5,6.5-7.5-.1-11.5-3.1-33.8-25.5-27.1-27.4-33.9-35.2-32.3-37.1,1.9-2.3,3.4-1.7,10.1,3.8ZM211.38,261.98c1.2,2.9,1.7,30.6.6,32.2-4.28,4.22-7.53-13.98-10.3-17.7-3.6-8.3-3.6-10.4.5-13.6,3.7-3,8.2-3.4,9.2-.9ZM410.88,272.78c3.6,3.7,2.9,4.4-2.9,2.4-5.7-1.84-3.37-10.11,2.9-2.4ZM63.38,272.28c.8,1.3-2.3,11.6-3.8,12.8-2.3,1.8-6.6,2.2-14.3,1.2-29.61-4.01-9.16-11.43,5.6-13.4,8-1.7,11.7-1.9,12.5-.6ZM196.48,272.08c2.1,1.4,10.7,26.3,10.2,29.7-3.84,5.52-6.3,5.73-16.4,4-15.89-1.61-15.5-8.43-15.4-23.4,6.6-4.24,14.19-13.75,21.6-10.3ZM390.58,272.58c2.4.7,4.8,1.8,5.4,2.4,2.3,2.3-4.9,11.3-9.2,11.3-3.3,0-6.8-8.5-5.4-13,.7-2.3,3.2-2.5,9.2-.7ZM297.38,279.48c7,7.3,23.5,27,28.8,34.4,5.8,8.1,4.5,11.4-4.5,11.4-25.92,2.55-47.48-72.32-24.3-45.8ZM145.78,280.48c3.43,7.62,2.57,17.39-5.7,18.8-2.6,0-6.2-2.5-6.2-4.4,0-1.6,8.4-20.6,9.1-20.6.4,0,1.7,2.8,2.8,6.2ZM74.78,282.28c9.1,8.9,8.4,10-4.9,8-9.4-1.5-9.1-1.2-7.4-6.7,2.28-8.73,2.58-10.24,12.3-1.3ZM27.98,278.48c-.1.5-.1,1.7-.1,2.8,1.22,3.85-7.44.53-10.5-.3,2.24-1.09,10.98-5.17,10.6-2.5ZM225.88,285.48c-1.43,6.63-8.16,26.95-10.4,18.5-3.62-7.05,6.86-25.09,11.1-26.3.3.3,0,3.8-.7,7.8ZM406.48,281.18c4,6.2,4.3,13.8.9,24.2-4.1,12.2-9.2,16-14.3,10.6-4.4-4.7-6.7-20.9-3.7-26.6,1.7-3.4,11.2-12.1,13.1-12.1.8,0,2.5,1.8,4,3.9ZM413.68,280.98c.79,3.95-8.21-2.56-2.8-1.5,1.3.1,2.5.9,2.8,1.5ZM423.28,285.98c.52,1.75,21.99,21.21,14.7,20.3-1.7,0-20.1-17.6-20.9-20.1-.45-5.36,3.09-4.52,6.2-.2ZM19.58,286.28c10.42,6.1,6.56,8.96,8.9,25.5,1.47,21.79,4.07,31.55,1.9,51-1.99-2.59-42.9-95.9-10.8-76.5ZM172.88,291.18c0,9.1-1.3,10.6-8.6,9.7-13.1-1.5-13.8-4.8-2.4-10.8,4.1-2.2,7.9-4.3,8.5-4.9,2-1.9,2.5-.7,2.5,6ZM433.88,287.28c5.14,1.62,8.98,11.62,6.1,14-1.08-.49-12.3-10.44-11.6-15,.8-1.3,1-1.3,5.5,1ZM51.68,291.28c5.8,3.6,5.9,4.8.3,22-3.79,8.28-16.83,66.85-18.5,34.6-1.6-19.2-3.3-53.1-2.9-54.3,1.7-4.4,15.2-5.9,21.1-2.3ZM426.48,298.58c2.48,4.46,9.71,9.62,9.5,13.6-1.2,1.9-13.9,3.6-18.6,2.5-3.7-.9-4.1-1.3-4.9-5.5-1.41-7.53.48-14.51,4.4-20,3.51,2.5,6.26,4.98,9.6,9.4ZM459.28,295.38c15.7,5.3,18.6,6.7,18.6,8.9s-1.2,2.6-10.5,4c-12.2,1.7-16.1,1.4-19.6-1.8-3.94-1.92-5.51-15.17-1.7-15.2.6,0,6.6,1.8,13.2,4.1ZM81.48,295.18c4.7,2.1,16.8,13.2,20.7,18.8,5.7,8.3,7.4,6.4-27.2,29.3-36.1,23.8-35.8,23.7-36.7,22.7-.4-.3.8-4.6,2.5-9.4,2.97-6.34,17.72-62.56,22-62,2.5-1.9,14-1.5,18.7.6ZM109.68,297.98c13.7,3.1,14.8,4,12.6,9.1-2.1,5.3-4.5,7.3-9.2,7.9-4.1.6-4.3.5-13.3-8.3-5-4.9-9.5-9.7-10-10.6-2.4-3.89,14.7,1.12,19.9,1.9ZM152.08,298.78c1.21,3.79-3.42,2.45-5.1,1.6-1-.7-.8-1.2,1-2.5,3.1-2.1,3.6-2,4.1.9ZM386.58,301.88c.62,4.22,3.11,15.72-.9,17.8-5.45,3.39-20.48,3.95-17.1-5.7,2-3.7,14.8-17.7,15.7-17.4.6.2,1.6,2.6,2.3,5.3ZM296.78,307.98c2.8,5.3,4.9,10.2,4.7,11-.4,1-1.8,1.3-4.2,1.1-5.6-.5-7.6-3.9-8.2-13.8-.6-11,1-10.6,7.7,1.7ZM137.28,300.58l2.8,1.2c-2.06,1.4-9.59,6.33-10.6,6.5-1,0-.7-5,.4-7.1,1.2-2.2,3.3-2.3,7.4-.6ZM170.08,305.78c3.2,1.3,3.8,5.9,3.1,24.6-.8,24.2-1.6,24-10.9-3.6-4-11.6-6.9-21.3-6.5-21.7,1.5-1.6,9.7-1.3,14.3.7ZM152.98,308.28c2.88,9.59,9.23,26.79,11.7,36.7.4,3.8.2,4.2-2.6,5.7-9.24,6.03-25.37-5.68-34.4-15.9.89-11.27-.81-24.28,10.3-27.8,5.68-2.78,12.4-4.76,15,1.3ZM210.58,306.78c1.63,3.57-3.99,2.82-3.1,0,.8-1.9,2.3-1.9,3.1,0ZM485.18,310.98c3.63,3.58-2.69,15.1-2.9,19.6-5.19,15.02-7.88,8.63-18.4-2.5-11.98-13.52-15.69-15.65,2.5-18.5,15.2-2.7,16.4-2.6,18.8,1.4ZM196.08,310.88c1.7,1.1.7,4.2-3.5,10.9-4.04,5.51-8.49,20.43-11,25.2-1.4,1.9-4.4,1.6-5.2-.5-.7-1.8.4-35.1,1.3-36.6.5-.8,16.8.1,18.4,1ZM445.38,310.28c.72,1.49-1.61,1.08-1.5,0,.01-1.56.92-1.05,1.5,0ZM219.18,311.98c.48,1.1-1.43,6.88-2,8.8-2.41-4.47-4.09-12.04,2-8.8ZM212.08,313.98c1.5,1.3,1.8,3.2,1.8,11,.82,21.35-10.17,20.91-24.7,22.8-4.1,1.3-2.7-3.9,4.3-16.8,9.3-17.3,13.8-21.4,18.6-17ZM250.08,315.88c20.92,2.13,24.27,10.13,10.3,19.2-3,1.5-17.1,4.9-23.5,5.6-9.1,1-14.7-3-17.1-12.5-2.95-17.68,7.91-14.49,30.3-12.3ZM119.98,320.68c-2.33,4.41-1.78,6.39-4.5,2.1-1.6-2.4-1.5-2.5,2.1-4.9,5.16-3.52,4.59-2.79,2.4,2.8ZM126.38,316.98c-1.26,1.33-.58,18.9-4.9,11.2-2.68-1.99,1.55-9.73,2.7-11.7,1.4-1.8,3-1.5,2.2.5ZM438.58,317.48c4.7,5.2,5.5,17.5,1.3,21.3-1.7,1.5-3.1,1.7-9.2,1.1-11-1-14.2-2.2-18.2-6.6-3.8-4.3-4.5-7.8-2.4-12.4,1.2-2.7,2.1-3,14.3-4.5,11.1-1.3,12-1.3,14.2,1.1ZM458.98,325.98c9.22,9.77,8.5,8.93,8.7,16.3-4.76-.14-15.73.87-17.3-2.4-3.93-3.42-9.64-24.14,1.2-17.3.4.8,4.2,4.5,8.3,8.3,7.2,6.7,7.3,6.7,3.2,1.7-2.8-3.94-13.87-13.75-16.2-16.8,0-1.5,4.3,2.1,12.1,10.2ZM340.98,321.28c6,3.1,6.9,5,2.3,5-6.49.89-18.24-13.85-2.3-5ZM402.88,321.18c2.4,4.7.2,14.5-3,12.6-2-1.2-5.2-9.4-4.5-11.5.26-2.05,5.77-4.62,7.5-1.1ZM365.78,321.18c2.08,2.4-.55,3.23,4.5,5.7,7.13,3.55,5.03,5.66-3.9,4.4-6.7-1-10-5.8-4.2-6.1,1.7-.1,1.8-.2.5-.6-4.18-.5.74-6.16,3.1-3.4ZM285.68,323.28c9.13,3.39,2.18,12.28-5.8,12-7.98.98-9.57-7.93-6.8-12.8,1.8-1.8,7.7-1.4,12.6.8ZM391.38,326.78c6.88,15.46-16.7,1.58-16.7-1.5-1.6-1.97,14.47-3.62,14.4-3.3.3.2,1.4,2.3,2.3,4.8ZM306.58,325.88c4.72,6.88-15.35,7.68-14.5,2.5-2.55-6.87,12.1-5.35,14.5-2.5ZM113.28,324.88c4.69,3.18-3.18,12.95-9.5,25-4.9,8.1-8.7,11.4-13.6,11.4-7.36,1.75-43.68,8.4-44.3,5.3,0-1.4,2.7-3.6,9.5-7.3,6.9-3.9,24.6-15.4,38.7-25.3,7.31-5.07,12.55-8.22,17.5-9.6.1-.1.8.2,1.7.5ZM323.58,326.28c9.16.76-13.36,4.3-13.2,2-6.85-5.28,12.04-1.44,13.2-2ZM355.88,327.28c.88,2.69-9.96,1.99-6.9-.1,1.9-1.2,6.9-1.1,6.9.1ZM350.68,330.78c1,1-.9,3.5-2.7,3.5s-4.1-2.6-4.1-4.6c0-.7,6,.2,6.8,1.1ZM121.28,333.18c4.15.79,2.38,21.59.9,24.2-1.1,1.1-17.3,4.1-18.2,3.3s12.5-30.4,13.8-30.4c.4,0,2,1.3,3.5,2.9ZM340.88,333.18c4.83,5.66,4.35,8.34-3.8,16.2-4.2,4.2-7.7,6.9-9,6.9-5.8,0-15.5-19.9-11-22.6,5.6-3.5,19.3-3.7,23.8-.5ZM221.08,335.38c6.02,11.83-5.54,6.97-5.2-.2,0-5.1,2.6-5,5.2.2ZM380.38,336.28c6.3,2.8,14.2,9.1,16.6,13.4,3.55,3.04.06,19.64,2,13.8,1.4-4.6,3.9-3.8,6.2,1.8,1.6,4.1,1.7,2.9.1-2.8-.47-9.39,21.39,13.16,27.8,17.2,11,8.5,12.8,10.7,12.8,16,0,8.9-11.1,21.6-18.9,21.6-8.72-.19-6.74-6.29-11.7-19.3-2.7-9.2-5-16.4-5.2-15.9-.1.4.9,4.8,2.4,9.8,3.7,12.5,4.8,18.4,3.5,19.7-2.59,2.82-14.97-11.41-18.6-16.8v-13.3q.1-13.2-1.2-7.1c-1.3,6.4-3.5,9.9-6.2,9.9-5.42-.02-25.27-30.7-32.3-37.8-5.41-6.45-8.08-6.93-1.7-11,3.08-3.97,20-1.03,24.4.8ZM310.98,336.28c10.43,14.14,17.73,28.65-.4,42.7-6,5.7-10.7,7-12.6,3.5-2.37-4.96-4.09-30.49-3.6-41.4,4.01-4.47,11.02-7.79,16.6-4.8ZM395.78,338.88c1.4,1.6,3.4,7.4,2.8,8-.6.7-11.7-8.5-11.7-9.7,0-.9,8,.6,8.9,1.7ZM287.48,338.88c1.9.9,3.6,2.6,3.9,3.8,1.07,4.79,6.75,75.7-3.8,51.8-6.47-16.79-20.54-63.79-.1-55.6ZM401.88,341.78c0,5.4-1.5,5.9-2.9.8-2.38-6.33,3.54-7.79,2.9-.8ZM427.38,341.38c17.1,3.4,18.8,5.5,20.6,24.6,1.4,15,1,17.3-3.2,17.3-5,0-9.5-2.8-20.3-12.4-10.04-9.99-26.8-18.52-18.1-30.2,2.9-2.9,3-2.9,21,.7ZM134.98,346.48c3.8,4,6.9,7.6,6.9,8,0,.3-2.8.9-6.1,1.3-7.1.8-7.9.2-7.9-6.1-.07-10.23-4.24-14.71,7.1-3.2ZM266.98,341.38c11.17,8.94,6.99,11.69,11.8,29.6,3.9,27.18,12.33,38.01-4.7,54.5-7.5,7.1-13,7.7-16.8,2-5.83-8.56-11.08-32.71-16.9-46.4-9.3-23.9-10.5-29.2-7.7-33.6.5-.7,4.2-2.1,8.3-3.2,8.93-1.99,18.29-6.68,26-2.9ZM213.98,344.58c-2.43,2.2-.31-7.24.7-2.8.2.9-.1,2.2-.7,2.8ZM351.28,345.88c11.88,11.92,45.38,47.01,36.1,69.9-1.78,9.54-3.36,19.4-4.6,28.7-.8,5-1.4,6.5-2.4,6.2-16.74-18.3-44.92-74.99-46.3-86.4-1.52-8.37,8.08-20.62,17.2-18.4ZM227.58,353.78c11.91,29.49,17.54,49.32,25.9,70.1,2.86,8.97,7.07,10.83,1.8,15.3-6.6,5.2-16.7,4.5-23.6-1.7-8.2-7.4-11.1-17.3-12.9-44.7-2.5-37.1-2.4-40.9.8-44,3-3,5.5-1.4,8,5ZM472.58,349.88c1.8,2.5.5,6.9-5.1,17.3-6,10.9-12.8,19.2-14.6,17.5-1.4-1.4-3.5-25.9-2.6-30.7,1.2-6.2,2.8-7.1,12.5-6.4,6.3.5,8.9,1.1,9.8,2.3ZM205.88,350.18c4.78,10.27-10.43,50.21-15.6,48.1-1.4,0-1.5-.1-7-16.5-6.41-19.17-7.14-29.11,8.2-32.1,10.3-1.8,13.2-1.7,14.4.5ZM179.88,351.98c-.04,1.11-3.83,6.9-4.9,8.8-.07-1.93-.3-7.99.6-8.8.9-.9,4.3-.9,4.3,0ZM173.88,355.28c.26,6.7-2.82-.06-2.3-2.3,1-1.7,2.3-.5,2.3,2.3ZM215.78,384.48c-.82,18.86,4.48,41.62-6.9,32.5-14.44-14.96-8.11-20.9-.8-54,2.1-8.1,4.3-11.6,6.1-9.8.6.6,1.2,13.2,1.6,31.3ZM169.28,357.38c1.4,1.7,2.6,3.9,2.6,5,0,4.6-5.7,11.8-8.2,10.2-2.8-1.7-15.1-15.3-14.5-16,1-.9,7.5-2.1,12.9-2.2,4-.1,5,.3,7.2,3ZM146.78,359.68c3.8,2,14.1,14.8,14.1,17.5s-1.4,5.5-10.5,22.1c-7.33,12.11-13.21,35-26.6,25.9-4.08-2.88.41-24.6.2-37.6.7-11.7,1.7-22.3,2.3-23.5,2.5-5.1,14.3-7.6,20.5-4.4ZM120.68,363.98c3.28,1.63-2.31,40.1-1.8,48.5,0,9.8-1.2,13.4-4.6,14.2-4.74.43-27.43-1.67-33.8-7.3-1.7-1.8-1.6-2.1.2-5.8,1.1-2.1,5-11.5,8.7-20.8,8.8-22.1,10.6-25.6,14.6-27.9,6.5-3.8,14.2-4.2,16.7-.9ZM93.28,368.78c-1.03,8.79-8.2,22.75-11.9,32.6-6.5,15.9-7.4,17-12.3,14.5-8.2-4.2-30.4-35.4-28.6-40.1.87-3.16,26.27-6.82,34.4-9.1,7.16-.83,20.13-5.65,18.4,2.1ZM173.48,374.78c.21,3.66,1.01,10.59-3.2,5.2-4.97-3.21,1.96-15.95,3.2-5.2ZM330.78,371.68c8.36,15.9,35.06,64.51,36.9,70.9,4.04,15.9-39.81,11.44-52.4,5.4-4.5-2.3-10.5-8.7-12.8-13.7-2.91-2.08-2.87-36.92,0-39,4.09-7.68,20.34-29.66,28.3-23.6ZM179.68,381.28c3,8.5,2.7,10.1-1.5,6.6-3-2.5-3.3-3.3-3.3-8.3,0-7.3,1.8-6.6,4.8,1.7ZM170.48,385.08c2.6,1.7,3.2,5.3,2.9,19-.3,14.3-.3,14.4-3.1,17.4-5.7,6-10.3,8.2-17.2,8.3-10.5,0-10.9-2.6-3.2-19,5.03-8.73,13.71-29.55,20.6-25.7ZM392.88,393.48c0,3-1.8,2-4-2.2-5.81-10.17,3.97-.44,4,2.2ZM181.98,394.28c2.6,1.5,4.2,5,6.9,15.5s2.4,14-2,20.9l-3,4.7c-10.18-4.5-7.56-9.39-8.8-23.4-.71-14.24-.16-20.73,6.9-17.7ZM407.68,410.08c8.98,11.46,11.58,15.66,5.5,24.5-3.8,4-17.1,12.7-19.5,12.7-6.14-2.72-7.48-3.39-6.5-14.3.7-10.6,4.4-30.6,5.9-32.5,2.7-3.2,6.2-.9,14.6,9.6ZM193.28,405.58c1.6,2.2,1.8,3.1.8,5.2-3.18,9.72-9.24-17.32-.8-5.2ZM295.28,407.88c2.57,1.5,4.38,37.25,4.1,40.2-4.57-1.07-4.21-8.41-5.8-14.8-4-19.7-4.4-23-3-25,1.7-2.4,2.7-2.5,4.7-.4ZM208.08,421.08c6.1,6.1,7.7,8.3,7.2,9.8-5.34,10.88-14.11,4.08-19.2-7.4-2-4.4-2.2-5.8-1.3-7.8,1.9-4.2,4.9-3,13.3,5.4ZM289.28,421.48c3.21,15.53-4.22,27.96-19.5,22.8-8.71-6.59,14.91-22.32,18-25,.5,0,1.1,1,1.5,2.2ZM96.78,427.28c18.3,2.5,19.7,2.9,20.6,7,1.3,6-1.5,19-4.1,19-.9,0-3.6-1.4-6.2-3.2-8.1-5.4-28.2-21.9-29.3-24-1-1.9-.9-2,1.5-1.4,1.4.3,9.3,1.5,17.5,2.6ZM173.68,429.18c1.56,7.29-7.76,1.77-4.8-1.4,1.8-2.2,4.4-1.5,4.8,1.4ZM195.88,431.28c1.1,2.3,1.8,4.5,1.5,5-1.1,1.8-7.5.8-7.5-1.1,0-1.4,2.8-7.9,3.4-7.9.3,0,1.5,1.8,2.6,4ZM130.78,432.68c3.01.48-5.72,13.82-9.4,19.1-.77-6.94-.58-25.5,9.4-19.1ZM221.88,435.38c1.2,2.2.7,4.9-.9,4.9-3.89-.57-3.43-11.4.9-4.9ZM166.08,437.88c7.3,5.1,8.3,8,8,22.4-.1,6.8-.5,13.2-.8,14.2-7.97,8.89-27.88-.35-38-6.7-27.14-18.44,14.46-42.68,30.8-29.9ZM184.28,439.18c1.7,1.9,1.7,2.4-.8,10.8-2.3,6.51-3.38,17.05-5.6,21.3-2,0-2.3-30.1-.4-33.2,1-1.5,5.1-.8,6.8,1.1ZM213.38,441.68c1.5,1.1,2,3.4,2.6,14.2-.07,8.32,3.76,24.4-1,24.8-.7-.7-13.1-35.7-13.1-36.9,1.49-3.55,8.12-4.61,11.5-2.1ZM231.98,447.98c6.96,9.22,11.73,13.47,6.6,21.4-2.8,4.5-15.8,19.9-16.7,19.9-2,0-2.5-16.1-1.2-32.7,1.1-12.5,5.1-15.6,11.3-8.6ZM251.68,446.58c4.1,3.3-2.9,12.3-7.6,9.8-1.8-1-9.2-9.4-9.2-10.5,0-1.7,14.5-1.1,16.8.7ZM269.58,467.28c3.4,9.1,6.2,17.1,6.3,17.8-5.02,2.18-18.5-14.24-20.4-18.9-1.5-3.7-.6-8.2,2.8-13.5,3.2-4.8,4.7-2.9,11.3,14.6ZM329.88,454.78c7.6,1.28,34.25,3.71,40.3,5.4,2.75,7.96-26.86,14.54-38.3,19.5-16.6,6-20.9,6.7-23.8,3.8-1.9-1.9-4.1-12.3-4.4-21.6-.4-8.9,4.2-10.1,26.2-7.1Z" fill="none" stroke="#E6B500" stroke-width="2"/>
<path class="cls-1" d="M262.08,287.28c.12,3.52,1.03-.24.5-1.3-.3-.6-.5-.1-.5,1.3Z" fill="none" stroke="#E6B500" stroke-width="2"/>
<path class="cls-1" d="M407.98,374.88c.14,2.76,1.29-.92.5-1.3-.3-.4-.6.2-.5,1.3Z" fill="none" stroke="#E6B500" stroke-width="2"/>
<path class="cls-1" d="M408.98,378.88c.14,2.76,1.29-.92.5-1.3-.3-.4-.6.2-.5,1.3Z" fill="none" stroke="#E6B500" stroke-width="2"/>
<path class="cls-1" d="M299.08,470.28c.12,3.52,1.03-.24.5-1.3-.3-.6-.5-.1-.5,1.3Z" fill="none" stroke="#E6B500" stroke-width="2"/>

</svg>